<mxfile host="65bd71144e">
    <diagram id="rwbc4lNjfXqRiJTDo9lZ" name="第 1 页">
        <mxGraphModel dx="1053" dy="1831" grid="1" gridSize="10" guides="1" tooltips="1" connect="1" arrows="1" fold="1" page="1" pageScale="1" pageWidth="827" pageHeight="1169" math="0" shadow="0">
            <root>
                <mxCell id="0"/>
                <mxCell id="1" parent="0"/>
                <mxCell id="2" style="edgeStyle=none;html=1;fontSize=18;exitX=1.017;exitY=0.341;exitDx=0;exitDy=0;exitPerimeter=0;endSize=14;" parent="1" source="3" edge="1">
                    <mxGeometry relative="1" as="geometry">
                        <mxPoint x="980" as="targetPoint"/>
                    </mxGeometry>
                </mxCell>
                <mxCell id="3" value="" style="rounded=0;whiteSpace=wrap;html=1;" parent="1" vertex="1">
                    <mxGeometry x="60" y="-280" width="120" height="820" as="geometry"/>
                </mxCell>
                <mxCell id="4" value="客户端" style="text;html=1;align=center;verticalAlign=middle;resizable=0;points=[];autosize=1;strokeColor=none;fillColor=none;" parent="1" vertex="1">
                    <mxGeometry x="90" y="-335" width="60" height="30" as="geometry"/>
                </mxCell>
                <mxCell id="5" style="edgeStyle=none;html=1;exitX=-0.033;exitY=0.622;exitDx=0;exitDy=0;entryX=1.003;entryY=0.624;entryDx=0;entryDy=0;entryPerimeter=0;fontSize=18;endSize=14;exitPerimeter=0;" parent="1" source="6" target="3" edge="1">
                    <mxGeometry relative="1" as="geometry"/>
                </mxCell>
                <mxCell id="6" value="" style="rounded=0;whiteSpace=wrap;html=1;" parent="1" vertex="1">
                    <mxGeometry x="990" y="-280" width="120" height="820" as="geometry"/>
                </mxCell>
                <mxCell id="7" value="服务端" style="text;html=1;align=center;verticalAlign=middle;resizable=0;points=[];autosize=1;strokeColor=none;fillColor=none;" parent="1" vertex="1">
                    <mxGeometry x="1020" y="-335" width="60" height="30" as="geometry"/>
                </mxCell>
                <mxCell id="8" value="Emp" style="text;html=1;align=center;verticalAlign=middle;resizable=0;points=[];autosize=1;strokeColor=none;fillColor=none;fontSize=20;" parent="1" vertex="1">
                    <mxGeometry x="525" y="-360" width="60" height="40" as="geometry"/>
                </mxCell>
                <mxCell id="9" value="html" style="text;html=1;align=center;verticalAlign=middle;resizable=0;points=[];autosize=1;strokeColor=none;fillColor=none;fontSize=18;" parent="1" vertex="1">
                    <mxGeometry x="525" y="-320" width="60" height="40" as="geometry"/>
                </mxCell>
                <mxCell id="20" value="" style="shape=image;verticalLabelPosition=bottom;labelBackgroundColor=default;verticalAlign=top;aspect=fixed;imageAspect=0;image=data:image/png,iVBORw0KGgoAAAANSUhEUgAAA+EAAAFJCAYAAAD0aSxMAAAgAElEQVR4nOzd30rj2hs38O9+2bcQEbHMz75bBlo8UMFBL6DtgTX2DgacCsUT0ZNM5+yF7e6J4kkp6Aj7DjqZelB7ARUFx4PSwlBoGSoi5iL2e5D/aZKmWtPqfD/gZo8xycrKSppnrWelf/zf/3fz33/4D/jvPxARERERERHRy/njf3N/adE3g3AiIiIiIiKil/TnfxwBJyIiIiIiIgrFn3/88ce4y0BERERERET0W/g/4y4AERERERER0e+CQTgRERERERFRSBiEExEREREREYWEQTgRERERERFRSBiEExEREREREYXk9wrCM0Vcd2Tkh1wtL7fRfcJ6kymN0lUb59K4yxFuvYqlOrryCxy0JKPbaas/L7H9lyTJ6F4VIY67HEREREREv5HQg3A18DJ/jGDQGszYlkk4d/xe/Rk+eBMTi8DFVxyM9pCG9jIBYcDgOpPCMmo4LYx49337eVqHx2Av1Ykg4bxTRykz5GoFEXPReexeKEOt1t8GzOMSS3WX9t7GdSmt1avL9aAF0/3rep+D/GoMzfIOZGe5LNsLzrxOJ6GDh4iIiIhoUv0Z3q7SKF0dIfVwhrmoRwSo1LD7wR4UAAWsa38vluo4nvmOOfEpEaSEbBK42a8MveaBOD/2wH1U8h8TwI89Rx2Px1uq11GSc2va+ZFw3tlAb38NubK+tIIV7f/zchub93tYyZltWgSAxplxjeTlNrJXRTSd11WmiM2FFr5ZIu283EYWZ9i92MDx0hAFzhRxfbiIm/0z4HBruIMlIiIiIvrNhDcSLn1CSmjh9EkB9Cj2v4p447slmEH/qKJ19M85Mu8YGRw0om+OBqojhNZRzOOkACxs2Uc4NfaRTMcopqNM+nrqOkdICUB8W1/uNqorYW2hhW85e0eE1z7zchvnJa2OZMk4ZjNDQUb+KenY1np3G3F99nF6iaB05X6c3c4W4hCQOrQvF0t1XJeK6ijvVRF5ra6s52ySHVy2AGEWccfv3bJCDsT5p3VwlXewEl2zX1tEREREROQqtCBcfCcAjUv1od8SZNmCGSGBY7fA9tnSKGUEVP91BBjlHaxE5zGn/Zw+JJDV96mlGc9F5zG3X4Mz2fhAnLctn8powWRBxNxJC/FtNYjLy1uYutBGK7X97V4o6miltr4xkinJ6ki/vt0TIGsEttox7M/3rSfn1jAX3UNVAZon+vL+oEgsbWDKmY7vu08gnpzFt/0alIUtbN7v4bQBTL3Tz1kM2cwddqPzmIueobmwESwg1uv9pOWy8PnH6WkhgUhZO9eNGDa1tqeeyzM0oVj2Kxr1JCQX0ds/Q1NIIDvzHbsXCoQZZ1j7BJaOGL1zYdTyqzHzujNIyCaVvs4YIiIiIiJ6eeN5MZsW4J42HL9XalpAp/6sj2rQXPqEFG5R7QvW7PPNswvWANOfbfT4MAHBOtpYELF7ISDbUdN7VwIGO/nVmD0w244B0xFtpLiC3oM6Uvu0UVgtHb9mL4v/PgHFCNr7R9ABBdWCnuZcQL0hIPL+CUWzee5x+micGW2qeT9EIG1kUCj9HTnPLI/R+aF1LoyE5XxmcdY3ui2WNhDvC8yJiIiIiCgMoQXh8i/FFtyFye0FVIA6Sh23BEJ9nQJeMkV8ScIcNXUZKQcARRn+mM0RXu3HMpdXH33/G5+Hfxu3Wzp+gH2Ow7OOk+zBfV96eRqpJYy2M4GIiIiIiAILbyS8cImmkMCXsOfSZorYnHZ7G3gakWlAuW+af7cQcJvvZyFAQU9/QdbHBGyZxJKM46Vb/P1hDacP/cfs1SHRvFeMNHY/cm5NDfxt26ig9+A1ku+Rjj/EPgfSXvRVH2FsN/xxAkZ2w9Bv926ip4xiJH/CSZ+QenDvjBksrc2pfytf10dEREREFL4Q09ELWI+e4TF5ZEv/fvxlSXF+gTnh6tvAqy4juxXkyi0IenkOZ3ET9GumCl9RVWLIauXcvK+hqS+TZHS3BSNN+0DUjtk6mlv4iirMY9XTruXcGk4b5nbtc+YdX9V2uIibgn3E+uDfGmDUr+WFZZ7p+IP2OYjlRWaHi7jZFx0pzvbtGnWgvxNgO2aecyNofsZxPovaHswXvgULNPVpCbaX7U3syH0apUwMzUv3nhLbsejnJdCx6OdsC3HoL80b1XkhIiIiInpb/vjf3F//jbsQLyZTxPXhLL5FncHhkCQZ3cydy9envQbqV8NFyiOcYw/A/euzaKK96nZMRERERPQ2hPg94WNQ3jG+U/k58qsx4OHylQYuFeQ+8C3YBPWFiJwKTkREREQ0Vm87CH+GvKymywNQ39r+gdELERERERERPc/bTkcnIiIiIiIimiDj+Z5wIiIiIiIiot8Qg3AiIiIiIiKikDAIJyIiIiIiIgoJg3AiIiIiIiKikDAIJyIiIiIiIgoJg3AiIiIiIiKikDAIJyIiIiIiIgoJg3AiIiIiIiKikDAIJyIiIiIiIgoJg3AiIiIiIiKikDAIf4syRVx3ZOS1f+blNq5L6ZHvJi+30e2oP+fSyDc/PEk2ytOV3QukltmsmzC87D7TKF0FrH9Huxh1GdS6r6OUGfkOJmSf/gZfD1qZr4oQQyvVC+9zZG1q8s7ni9LuVRNx37QZ4n7iS8L5S57HSa2/F7vHjpgkD34mkGSX+0YapatXcHwTJ8D9LVPEdedlntUGlmuCPh/G8YymE0t1z2fHULyW+8dz/S7HGUD4Qbj24Rnujcbby1x0o3qQcQr2YCMmFoGLrzgIvFm3D9vBDsR5zEX3UFWGXPGlFETMReexexFugcZ6486ksIwaTguj2dzTjqWC3Id5zEXP0BxNMSZ0n/7Gcz281L0mmKHvNZ7GdD61B9/hg38J5x2z02VSPs+ebcT3k9/N6K6HFyLJRoDz+CuOc5+OjPxqDM3yDmQA+n3muhQHHu6AUj2kzkT7dRb8PmcNeiehY29cn1dv5fOBfifWAY3wOlufcq9x3me0nyHujaEH4flVAdWTGrCUCnE06HciIZsEbmqVcRdkIqmBkhjqh8JL7jP/MQH8qGoPSpPshUfGXgXtQezDTojn6yX3+drvNRLODxdxsz+Pueg85vZvsXwYpHc+jdLVFqYu9tT1onu4WToa7kFB6zBcn7Bg99XcTyay/l7B9VAQMRe9xNp2DPHtVdS96jBTxOZCC3VjmXof+RsbSC0ksIl/QriPqdcZTrTrM3oGbAf7DBFLn7H8Q78+5zF3oiD1cdLSJhzKO1iJzmMlF2b7mbzPh3E8o9FkUduAfu22EM+8dIffU+81euea+bN7oQAPvcDXU8hBuIS16VtUC1XcYBEp5wFa04mdPRG2EQvHyINjmbmehPOOjLxbmrK2znFSABa2PEY0hk/VEUt1dDtHSAlAfNu9F9bWy2Nsu39f6rbUh0J1nS3EISB1qK/v8sAorSLe+I5c2bkgZfbyGPvQen62Y4CQwLGjjvJyG+clrW5lySj3aFIVrT1HluPIFHF9VUS+VHc5Jz7ncxBrG3E9n44erb7z4NL2BrWhQfv0bO/qcZZc68Bej2sLLXwzPrT925AuYtmusU/fY7GX51zSz99z04m07VjOYV7Wy/9S+0Tf/cJZX9clyT110LdtDjrUAW3W5/7m1Ss88F4zYJ/27fZfg6VB6fV995oXPp8+KcjOOgpyXsTShq38YmIRAmJYG3hLiSMiWK+7Cqo/FEy9C9IWvNNS1bZXVOvF0s5c7ycu9xRnHdi3H2Tk3nE/0dqB876Vl/vvG+7tREHvvXsbVLdhLVPQdjCm+vM9Tr36XD57n3mv8bwGndsN+lkoyeh2VlE/aaF5cok1j7bQP4Kp1vsXfEe1UcM3fHY5Z/3Xv7E9x2dosLJ+QsqalSGtIg4By4nB15n8S4GQ/KzVZxqlTAzKfbAxaM/Pe/i3W9/zOcDAqUxv4vMB6B85dGx3iOclr+cTt/ub+zO3tZ7UZcdJweVAvHjdU/0+B12O1aW8rs9oCNA2S951+Kz7m9tnb6aIa2cbHyarVtEyagZ8ZovvBJegdnLuNY4NIZsEqv8G7x0ONwiXVjH1owoZFVR/wH6AkozutoDqvtmjYPTQZoq4Pkzg8cRcZvYWSjg/nMW3qLUHw/rhEEM2c4ddbVlzYUNtNFqv4+6FAjTOXLb7NHJuzUhJbRrlXTMf9Ep1bN6bPbS7PxbxpZSG2qOyhyoS6r8zRXxJKjjVegTVnqEzNKFY6sjZW5hGKSO4NgAhuYjevpYuiwSyEgAUsK71NEGpaXU0jznRXD+enMW3/RqUhS1s3u/htIGAD5t+tP0aPUcCNq0XoJBAdua7NjpVA5KfBp/PQbTzPXfSclmYRunqCKkHsx1Ye4bVc2q2r0e9PIPakN8+JRndbeBU3+5+DVO2nrcYUku36nH21YFKLG1gyvag5N+GjO3qdWvtYRx4Pajr7V4oiG9voLd/hiYERJ41sl3AevQMzYUt9eYuychO17Br1P1L7NM8Vv0YTx/060ElJLcQKettE/YRFN+26XeoPlMlfO9vjl7h/RqmtHM26F7jt8+83EYWZ7ZrMGv98BQSSOnLXXui3e414zmfzmM5bdiXOR/c9IeE+IxgPJjn5TaOZ74HvL810VOswbqEbFKAMBMPUFr/tFT1Pn2GptbOdi8Uc7s+7VYs1dW6js5b2oTeFtIoXW1o93995P5z332z735S7uFRmEUceoCRBpBGZFpB76d63E/67NWobUA/ZzH7Z8BE1d+g49Tq2O2z95n3GvdrUMK59X6hf36LAR78CqLx3DD1rol112ceCdmkYulkMut9JdcEpmeB3Frg0UqxVMex/lnmvB+5BFZ6cGB9+BZLdXQzdzi1ns9Bx7l/i+XDNrqdI0TKwZ/tPD/vNX7t1vd8+vCdyvRmPh+gBjvW5yxrG/J7XsoUcW2JD/TnFNvzicfzkvcz94C26cvvnjrgc3DA+fR8RkOAtpnUM7usz/mjuL+5KO/gW8MeqOZXY1C0TCq/z14AA56lzA6O46SC0yD3NozpXmPb/4bHIKi3EINwtTfy8Zfa2OTarS0lPb8ag3Lxj2vhxcQihMaZe9qUtIo4YsgalaqOFpsPdgqqBf0hsIB6Q0DkfdAyjzpVJ43UkgAheWTreTNPdAW5D2d4TB6he7iIm/0hU3KkT0jhFlWXOjTrtoLeQ/BAWjEeylqOD+XnsPeGHvc9wLbMi65cxY0yqvPpIZPCstDyvtBtF6+zfT2N+E6w1C3M4zSOxXKc5R4e+/bpleo1qA1ZjvPnHRTtIXswxfxAHeImY/ZKOrI4jN7JAtb3a5jabqudErZr7Wn7HMzeg51dcFwPlnuNXLuFMh2xPGD4tc2n8b2/wdGze5iAEPiceVEDKesDkly7dbSFAe3E817zgufTNQVZwtqC4tnzbHtAdelgA+IoXbXVh7SAH/RABbmCdoydNrqdVfQulMAjbb6MenE7pgHt1sFYlklhWbBmUB0hJTjvm273kyZ6WvuOQ8HjTAoi4ogICnplPPuz1/p5f3DZGvqBx9VL1N/A44TP9TCie82ge/Ww94SC6BmUqg+Slx7PHhXkPng9l2id67brSH3mMeeW95ej7/q0BoowO8jmPuwEn08tydrnn97B/cSsJZdz7dtufc/n07ypz4efd1AWtlyyKJ7AVrdez0t+z9wD2ib6R1XNDKBB91Tvz8FB59O3bgO3zcHP+UPd3zym/xz8a51abM+kGvzZ6/csZRmoOwGyfe1lgu41huFHwQHgz6H381SZFJYFQNAapUpBKgPIz324bpwN8QA1bgqq+2sDHkAVKMrwwaX6IhVx4ufziaXPSKGG3eiO0fN0PDPuUnmRcL4dQ/NEvwFJOO9sjLtQRqrXumc7elobGjU5t6a1R7Xeel5tX1GgCNpNeGTBtru8vIW45Z6Rl9vYfNldPl2miC9JoLo/r9Zbpojrw9lxl2rwvSbE8+knL6uBj42ijko07xVkk1uInMxjpQCoD5/A42WAzsbyDlYcH96RIOs9g1+7lWu3+JJUpxQdA+pnojXIUqwZCS5c7ycV9B4+IwIJazOXOL1fRUoCppQ78wHlFX32Pqv+Bhyn1/XwMveaAuqNLWSNZyn1mWI0c2jTSC0B1UJI51SS1elwNtoz0i8Fx8ktbF7sGefCmr3iRx3U2dM+a3aw8l5GN5OCiMqA56MJ/bz38to+H4z7ptY5Feh5GGqQJiXUoPcQAFo4jQYdHPPaR4BpDcbzi9tmB9xTgRF/Dj69bT73/uapXMWN9FmN496vIt64xLq2yO+zd6gYpfAV1czn59fhC91rdPq93vuZ3F1oI+F67499AruZkn5w2YLgkdop126heKUdaz1rQb+iyf6yEXXuEDx7K5/69Q1evVAV9B4EpCSv7ekvB1jDSqGGqb6UEG1kwi2wyhSxOf3Et9oONSI6DMmYn2c93viMdY6HmsrpvQnv0X238/kk5SpuFI90yEwEU9DTL7VRAsef+Lchd+qcNUt7lz4hJQQ9Fu9pB4Pb0OByDXssz6O9HKuwhpUTxefaeMqm3b6JQQ20jJtrpohN5weFhe+Lqvza5hB872/vZyFAG3nUymO/WobLbDHXEWypkvmPCQieo18OvveaFzyfrl/ho94T9c8RsVS3ffD79cbLtVsosFxzbtdggG/z0FP97PWhZ/uM6mtY/Ntt/qM9vdH2QFXu4VFIGCmYbtv2up8074HIx1XgsgD5F7C8Omveu5/52WvffwzNS/uoxsTU36Dj9LweRnivcdnfrsdojsr9s3cg6RNSD0/NOnJ7XlLvT/FVrfIk2T7v1m90qnCJJhQzOyNTxOaC4sjW8D5O6wi1+K7/GUMf5bTPcx38eW873r52axrVSw7f1ueDTh3JPA2ayeiXxu7L75l7QNv0M/Ce6v056Hs+/QzVNu2edX8DfL4+r4JcWcFyIq2+dNvyGTJ4JNzC71lK+oSUYLZx1WTda/S/H3YUHAgtCNfSBBw3K1sgUhDVeSduqR/lHbUhH5rLjMZQ3sHKScvy4glnJVlSRtzScwtfUYX5UrJRfdXMwb81wEiBMef6Hoh7tv2Zx2nOS14vqMf194WArO3FBxXkytZjtXwX+HNu+OUdfGtY0lECvexMf0iyv/jDfiE30VPQlyp38G9NS0lqo9vZQO/COQfIUpa+lFbv86l/qNpeLiabF6S6PctL6Ix2YknhdrYhbd6Lvs/jmdv+eVtebchvn872vi2gGnT6gecNK0gbGuBJ14OecmlNOQ+yTwnnnS1M6SlUBRGnDwkcB3rwDrDPn3dQAEeaq3oNGelph7O4cc4Ds7yYLouzvvla7m3T/3rwbZt+97fCV1QVc5+b97W+NCmve43fPg/EPVSnLcc5HXBOKfzuNS98Pss9PAIQbN+soaaG68d/vHSLaqNv4+7KO1g5gf18DjHP1Uhv1NLX7PWhPhDAZRrJ064V/3Z78K81Pd59yges9zfrORnQmRRfENQHv8IlHhdigB5UPvOz10wRPcLyjz1HquME1d+A4/S+Hp57r/FQ3sG3B/szRH8duH/2+vMPKgfTzplgf+nugajOj9WvsWrgebcFrBvzuvU2FGDUFP33t+Ok4niO0Dqc4QhQA3ze+7Zbz/Pp124HPEu9mc+H/vTuLCxp2b7PS19t5em7h/nwfuZ2tM3MHXZd3xnkxu+eOuBz0O98+gnyLOpVB8+4v6l/4/bZq1fFJR6TR8hi2M47r2cpx4ubM3fY7ftcnpx7DaB3Uj2t8/KP/8399d/wq70WA1Jg3wotBenbBH6tg/GihKApKL7H8pucT19qoB0pT9rX80wita6Wf+wFfimPOjXiu3tq1gRfZ6EZax0EO595WZ3jHe5X/bgwXr748nXVd8yZIq4DPUiM534S6By9hvp7xvXge6/x47JP40Valm0N/dkryeoD7zPegRNkn08+7pFTgyWcBG/7fu12co5rjF7q86GvbQ7/2f47e/rng27y6vt13Wu8hTcnnF6OY37iRNDeACk8ZQ4I+agg92EyboKTTCzVcZwUoFxMzofGmzCue40+n8s5l20iqQ/3cbRCCSD1tGfcW37lSFP1Non3k1dUf+O4Ht7POlKOtbT3H2ba+5M+ewsi5p78rGo9Z5P/ea/PV20OEYBTAC90PajTCe4sv4kjIsB40TP5ec7nAybws/d13WsGYRBOL2MSOwbot+H7QhV6fZ4VIIStgPVomIWtIFdI4frwCN3Okfa7Ub6sK2ysP18FEaerbWQ7bWT131kfkMfy2Rv2OXueA3F+Ms8tuZJz/yB1dWS+WAxQO9hfT5Mbo2fe3ybus/d13WsGeePp6ERERERERESTI8TvCSciIiIiIiL6vTEIJyIiIiIiIgoJg3AiIiIiIiKikDAIJyIiIiIiIgoJg3AiIiIiIiKikDAIJyIiIiIiIgoJg3AiIiIiIiKikDAIJyIiIiIiIgoJg3AiIiIiIiKikDAIJyIiIiIiIgoJg/DXKlPEdUdGvu93bVyX0uMq1ehIMrqdNs6lMezbrW4H0cqr/mjrauej22mje1WE+DKlHZm8/EbaDhERERHRBAs/CNeClUl52BdLdXTlYSO9NEpXbUvQ9TqCLHopEs63BVT35zEXncdcVMQBAJR3sBKdx9xJ6wnbVNvYWDohiIiIiIjoxfwZ9g7zqwKqJzUsZ1IQUYEcdgFGqHkyj/XCuEthUd7BSnnchRiRgoi5SapbP5kIpqCg/lbqnoiIiIiIXkzII+ES1qZvUS1UcYNFpDLOxbJtdNk2CmhN7XWOpDuWmetJOO/IyFu3q496a+scJwVgYct9u088xvOOjFKp7r1Nn+PMy+3+tGa34zxMQID7es7R07zcxnnJOzXavs82up06SpZzI5bqfb8bzCVbQD8ex/Hb68i6nnOfPufzuXzqVt2vS1n1dQ4TEBBDdsg25Kx3/byp9X2ElADEt93rwrbuCLMwHn/FLcdqaX+ZIq6visj7tWsiIiIiIhoo3CBcWsXUjypkVFD9ASwnLA/xkoyuLaXXMsqcKeL6MIHHE3PZSq6ir4jzw1l8i+rLzoBta/AaQzZzh11tWXNhQw1mtFTh3QsFaJy5bHcwM0ByBkIxpJZu1X3u14DkJ7M8PseZl9vIwizL7oWArL7dTBHXh4u40dfbr0GxlOVAnMdcdA9V6y+tZU3q6+6higSyloAvO13T6kddv3myhtwzR3Xz8hFSD2fGOWlCQXVfS9MuiMYxzu3XoDTOLPVeQe6Dvo4bj/P5HL51m0bpagM943zt4Wbps60NqX/fwumQbUg9Z+Y+pzLquZZza5Zzof+NeU7EUh2b93tmO/mxiC8jCojj2+axnjZi2LRuV0hgE/8Y5bW1ayIiIiIiCiTEdPQ0SpkYHstqgCLXbvFFMlPS86sxKBd7rsGfmFiE0DjDilt6srSKOGKId9rIGr9U0MsAKKv/Xy3saGnvBdQbW1h7H7C8V+popKqFU32ur8Y7Hd2yz3IPj4eLiGjl8T7ONCLTCqoFc4Ny7RZfkrOIA0BiEULj+5ODY+XiH23dCnoPR1h+lwbgHixOOZbJubURTBsQEOmrdwnnEvD3h2Hyzp96Pr2JfnWbSWFZECActtE9NH/dfOY+ATWYPk5ax9xbiAMD6jqN1JIAQThCt3Nk/roRh9f5HIbZToCDyxayq9bttvBN72B4S1MfiIiIiIhCFF4QnklhWQCE7Ta62/ovFaQygPzch/nGGebEUU8griD34flBzaRTA/0EjjttHANqXQ6RDeDl4LKF7PYWup0tAIBysefoRNFGmAujCPBfmFLD7oed0ZYzU8SXJFDdn1eD3kwR14ezQQuE6v7zsxWIiIiIiCh8oaWj66PZRvptdB67F2ZK+sFlC4JHeqtcu4XilXb88w7Kwlawt0hnithcaKFuCQblXwowHQntzebex1lB70FA6qN5IPmPCQiNSxzo5VxY1daTcN43b/lp8h/taf5unRnDzwlPo5Sxp9w7U7TF0mdEys8MJF3OpzF/e4h50r51W+7hUUiMLN3b8H4WAhT0tOPPf3Sezwp6D3pWgvP3AlKS3/Hp8+qH/Jo15zYyMTQvX8vb8YiIiIiIXoeQgnA1hdb5QC//UsyAtCCqc6DdXlhW3sHKiYLUocvLsco7WDlp+czPFsz1Dhdxs29PKUfhK6pQR4KHfdmU9z59+BzngbiH6rT5krjsdA27elBcEHHa0F/+tYHevnXOtB502V/mFaRj4uDfGqasxzGSl51VkCvbz5etbiUZx0nBXn/GPvWXoG0hbpw7awfAgPOJJnoKAEFL4w/Ct24LWN+vAckj7xfmedFfILcdAwStjentpPAVVcV8mdvmfa1vDvzBv9b9mnVwIO7Z2mz/uVYDeEBQp0EMQTD2d4TlH3uT9fZ/IiIiIqI34I//zf3137gL8XIknHc20GPqrqe83Mbm/Z45Um28pOw5dabOp4+ULXPmJRndbfTNqx9OsPMpluo4XrodfQr5azKS+iYiIiIiolEL+SvKaLKkEZl2/MqRJv00cUQcufLiOwFQ7jzeeD4i+tfO/dYBuJZJwACciIiIiGgihfh2dJo8FeQKKVwfWt+0rb7063nBWwHrJ6vo2l7C18Jp9IUDY76xG0AB61HmkBMRERERTao3no5ORERERERENDmYjk5EREREREQUEgbhRERERERERCFhEE5EREREREQUEgbhRERERERERCFhEE5EREREREQUEgbhRERERERERCFhEE5EREREREQUEgbhRERERERERCFhEE5EREREREQUEgbhRERERERERCFhEE6hE0t1dGVp3MUISMJ5p45SZtzlICIiIiKityD8IFyS0e20cV1Kh75rN08NCPPy5BzD7yYvt9HtmD/nEqAGy210r4oQ9T+UZPu/XxXteGzHGEQapStL/byazg53YqluHssw51K7z0xUPXiUyXaMnTa6HRn5EIrzpLp1HsPQ7YRJk5IAACAASURBVHPUXDrJHNe9+/3iZT253QL2On619y8iIiLyE3oQnl8VUD2pAUspPlzQkNQAMztdw250HnPaz3pBX65AQQLZCYi3nieN0tUWcKIf4xmwHWw0Pi8fIfVwZtTNKbZeb2eRJON46dY417s/FnEcKJiWcL4NnBptZA/V6Y2xZjOIpTq6tjLNY04smH/QsJyzRgybL33Onlq3BdEsv9Y2m1DQ+/myxX0qsVRHFme2Mq8XBq/3LE9uty7t5MMO5BcuLhEREYUv5CBcwtr0LaqFKm6wiJTzodgxymIbscgUcW1ZZgssHMvM9SScd2TkrdvVH4a0dY6TArCw5b7dJ3KObFm3mZfbOC9ZyusY6XCO2nT1UZ5MEdfWETLHv/322Tc66hhts6/bPwqnLh8uJbt/dM85AhWxlCngyF8mhWWhhVOfB9Obcg1Tq8NG4fZRZ9cRqITs00a09V0etPvqIcjDuPQJKdRwqgcL0iriELCcGNQ204hMK6j+a0YZB5ctCDPxwfvU2NqfpQ7EUh3XpaKlnoZpJ876DdKW0ihlYmiW9XOdRmpJABZWA7SVJnpKDFm9rqVPSAkKeuWBK1qOw+U4M0VcXxVRkr3atBcJ2aSA5omIg2BFwOOvikuZJqFu7cTSBuKN78iNrW79xWeEgGWahLpNI7UEVPeDtxMiIiJ6ncINwqVVTP2oQkYF1R+wBxWSjO62gOq+y4hFpojrwwQeT8xlKzn9IVXC+eEsvkWto4bWACGGbOZOG5U4Q3NBGxEr72AlOo/dC8U2CmVu9+nk3JptpOgx+cn2ABZPLuJmXxuhs4zciqW6ZZR3D1UFaJ6sBXrA9dunfXRUHbkyHvQkGccz3811T2AGL6Oqg5MWlIs9+wjUQgKR8pAjf+9nISh3aPr9zc8qboYe9Sxg3TpqqjgDfQGpJa0N7dcAx/n0Ipbq9hGxC8Vc6JrWqz7ki+8E4KEHWdtGN3OH0wslQDBdQe/BGqyrAQGmI4GyTsRSHZv3e8Z52/2xiC+W8yIkE8bofPDRWgnnHfuovnn+3DqH9I6KOCKCPsIq4bxzhEj5DE0IiAw8txXkPqhZAN1OG93MHXajAQObQdeDkEBKH1k9aSGeCZAunIlgCi3UC/qxuHT0WDoCszgLOFo7jrq17z+bhK3Tx//PX6BuBzgQz9DU6na4DtYx1G0mhWVBARJ1xzaJiIjorfkzvF2pAcFjWQ1y5dotvkgpiKhABpBfjUG52HMNOMXEIoTGGVbcnvWkVcQRQ7zTRtb4pYJeBkBZ/f9qQQ+oCqg3trD2PmB5r46QMgZSWjgd4kG+ux2z/MJaHkC5+Ec7zgp6D0dYfpcG4B78T/ksG2afdgIiWh3kV2PAQgzdzpZl1TuIgBGEyrm1p6dEZoq4Xr3Eiug4hoYZaDTvFWRn4tCPUyzV1QwFTfNE7ZAR3wkA7gbssIJc+RO6HyXgcvji5uXPQGHNcZ4tbajcw+PhovpAbdRtAetRZ+NUR8DMETGHgog5j9hFTOhlUQOyuQ8FiKV6oPIfiGdY6xyh2zlSy33RAmZ6Ac6fWl5B0NfVNMzz4nfOAI92Iq0irtSw63qsFeQ+eLVtLfh4X8R1R+20ypXVNPPBtGv34Qxz0QLychvHHRnxANfv4OuhhVM9jfznHRRhFnF9meMaVC72XDr1tLYiyehag7LGmZGenpfb6MqwpatPTt2a9FHw9YCj4C9ft270a1NtE93OkXE/0U1W3cawjD3MRStGmc+lwsun0BMREVGowgvCMyksC4Cw3UbXeCBRkMoAcsCHOE+WB9jR8XvQ8iPhfDtmedCTcN7ZCLSmXLvFl2QCx502jgH1uAI9aPrv8+Cyhez2lvHwq1zs2To0nA+lo6NnKewMtZZX0C//UnCctDyYeyl8RfUq2Gi1lToS/A9Wntseg+jrNAEABdX9NeR+KThObmHzYs84//EZAcq9bw6Axt4hIJbqWA60nmX/YRw/gP6OLk3jDHNiEz1lC6ntWZxGtU6RTARTUFAfVD5j2oJaDwfiHiJXR1iTAARo50++Hrw6Vlw7brwdXLaQzURsHWHDe6G61WWK+JIEqvvDVdTI69bLg7PjSbufSzK6mSLEwnPmWr9k3bbwzbjnD+6kJSIiotcptHR0fTTb+oKc3QszJf3gsgXBI81Xrt1CWfBIMf55B2VhK9j8wUwRmwt6Wqi27V9K4HTdQLQHLv1FRWJpA0Fn5OY/2lPu+zsW9JTGNEpSAsYzoO8+0yhl7Gn+1hGk5r2C+Lb/nOynzAkHgLy8gd4o5zcWvqJqnevrqYLqDwGbGedTsp5G6nK8mSK+zHx/4nQEbbu2eeQV9B6AuD4/XZJto/v9L7iax1xUC4ALl2hCwU2tYpRtc8Hyb3WD/W+Dd5JkHCcVy0O9Sp+Xa79m1FT2lPSMFGAtxd623Z93UAT9/Q/qC+fMtqmmjffVg1iAeg4VoHFptJ/8xwQEy7+9jwWALf03jkjf1GD3+gtyPQyvgHojeN3mV2P9QeRE1a3+915zwcOs2yZ6Sv8UDK8OKzWbxlncCanbchU3SkztLFILhrW+656IiIjegpCCcC0199IeVMq/FDPwLojYvRCQdXuRV3kHKycKUocuLx4r72DlpIX4ttdLtQRzvcNF3DiDwsJXVKGOPg87b1BIHvW/tKe8g28Nc5/HM7eoKgM3BQA4+LeGqW23eYbO7erzDOGyzLnPCnJle91Zj1POreG0EbPV+6heTpddENzP2ZNVkPuwh+r0lu1Y3IIEOfcdj4LzgVsNjNE3P1PC+WECwoJ1u8MEC9p2BfvLBq3zUbvbQPUiYENAAev7t1i2tduAI9TWueYec6HlX2o51KkO1vLu2a6FoV+O9fMOCiwdDwBQ3sHfFzDa7fKPmv+cfms5c2vmvG5trnSgjJe++8UWppzvJEATPQWAlvJs2+cLXA8H4jxOHyx1u+0ItBcGHOek1C1gdAp5zwUPs24ryH04w6NxL1anIaidaf1zt4+XbrHrfLHjxNRtBbmC9TNgCwj4ThAiIiJ6Xf7439xf/427EC9HTcvuhZpi+3R5uY3Ne8tcx0wR18MEYK7U1MlI2ZIGKsna1+D8hm/hfaFjN17C5vPmdrFUV19MNfKpE8MyXzo12mkIQbY7OddkkHM2OVi3L+d11S0RERG9fqF/Tzh5SSMy7fjV+1kICP7VSu76U3HFdwIw6C3jb46WIjvyAFzd7nFS8f3qtEmhfgXZ6ANwNb3WbcR5AulfT/hKgkTW7ct5VXVLREREb0aIb0cnfxXkCilcH1rfTq2+KOt5AWMB6yer6NpeiNfCaXTyH5BHy+0N5pO83ZdxIM6/SPbDs96gH7byTjgv3xsR1u3LeVV1S0RERG/GG09HJyIiIiIiIpocTEcnIiIiIiIiCgmDcCIiIiIiIqKQMAgnIiIiIiIiCgmDcCIiIiIiIqKQMAgnIiIiIiIiCgmDcCIiIiIiIqKQMAgnIiIiIiIiCgmDcCIiIiIiIqKQMAgnIiIiIiIiCgmDcCIiIiIiIqKQvP4gPFPEdUdGftzlGLO83Ea3o/6cS+MuDREREREREbkJPQi3BosTHzBmiri2lLV7VYQ4gs2KpTq68mgP/ECcx1x0D1VlpJv9fdjOdR2lzLgLREREREREb9Gf4e0qjdLVEVKoYTe6Azm8HT+NJKO7HUPzZB4rhXEXhl6WhPPDRdzszyNXhhqQH8rIl0UcjLtoRERERET0poQ3Ep5JYVlo4fSDRwA+aNTZsfy6lLatHinVPUbXJZz7rOclvxqDcrGHda8AXJI9RvQlnHdklCzlMfapHcNxUgAWttyXXxWRd1vXd59BaPUwxAh8Xm7jvKTVuywZWQz6fkVLOe1l7d9XXg6eSeCbLeFsJ277GTJzQSxtIN74rgbgAMTEIgTEsDbJWRpERERERPQqhReEv5+FoNyh6bW8vIOV6DzmtJ/ThwSyehCUKeL6MIHHE3P5Sq5iWTmG1Mx3ddlJC/GMHnylUbraQG9fX28PN0ufA6QapxGZBh5/VdwXSzK628CpXt79Gqa2rSnMMaSWbrGrLUPykzpnXTvG3QsFaJy5H4uQwCb+MbZrrDtwny8jnpzFt/0alIUtbN7v4bQBTL1Tg205t2Ycw1z0DI96WVHAevQMzYUtNYCWZGSna9j16oBxUFPrLcdpnE8J59Z2cNIClBp2RbWnRCzVsXm/Z6y7+2MRX7SOAWdgbw3S4zMClPum8XfHM99tx0lERERERDQqoaWji+8EAHc+fyHhvLOFuOU3yn0aQEUdmWyc+aSFt3CqBWL4eQdFmEUcgJxJYVkQIBy20T00/7r53mOfih4oxhER/I9FufjHTFUuV3EjJRAxtqugWtACznIPj4eLiGQAlH0O33Is3/SgvLyDFX10duA+BylgPTp8Xr1y8RUHSGFTL5d8ZC7UUvYtf42ecZwFrO9HcH3YRhctnNqmIGhTE4w6buE0aqZ+i6W6mi0Ac3kccA/g9XONNFJLAgThCN2OpYyNOIAKDsR5z9TyuPbf0tURln/sYS5XQV7e8q8YIiIiIiKiJwgtCJd/KThOznoGU3l5C/HGGea0YDovt7E5ih0rfiOwXoFpEz0FWH6ndgKQGwnn2px5NWVfwnlno//PFAWKIDg6ISrIffCo10wRX5JA1TY/e1ZbWEC9sYXsdhvdbQBQUN1fswTX6r9zLp0debmN7IKzbGrbaN4ryCa3EDHm/2uZEJc890RERERENFrhpaMXvqKqxJB1nZOsBj16SjAyRWxaAia5dgtlYWP41OtyD49CwkhJDq6CXLkFIemeui7/UiAYqdcApE9ICS3UAw40y78UYDoy1JvWn7vPp8wJ95WJYAoKej/Vf4qlDVsWg/Gys8IaVk4UpKSAb5Z/PwsBCnpaIJ3/mIAxJp4pYnO6pqb5R+cxF7UG3BX0HgTP/dhS3PUfrXNGrt1CgaUuh65bIiIiIiKiYEL8irIKch/2UJ3ecnnplh70Hqm/P5zFzYXlu7bKO2ogdzjsC9YKWN+vAfp2O210g36neEHEnGOfxou+CiJ2LwRk9d9vC6juD/Em7cJXVJHA8TDH4rvPNEpXbXQ7aop3fDuEr38r7+BbQzDq53jm1vL1aGqa/9TFP2qQXBBx+pDAcZC61ztrtOPcvK+Z7xEo7+Dbg1lvzq8TOxD3bPUauA7KO1g5gaVuYUuPJyIiIiIiGpU//jf313/jLgRRIFpq+jdLgJyX28jCnMZAREREREQ0yUIcCSd6pvezsL8vzzGNgYiIiIiIaMJxJJxelb4XrDU4Ck5ERERERK8Hg3AiIiIiIiKikDAdnYiIiIiIiCgkDMKJiIiIiIiIQsIgnIiIiIiIiCgkDMKJiIiIiIiIQsIgnIiIiIiIiCgkDMKJiIiIiIiIQsIgnIiIiIiIiCgkDMKJiIiIiIiIQsIgnIiIiIiIiCgkDMKJiIiIiIiIQsIg/DkkGd1OG+fSuAuSRulqEsoRUKaI604b3U4b3asiRLe/mZi6JSIiIiIiGp3Qg/C8rAVf2s9EB1mS7B0k0tOVd7ASncfcSWvcJSEiIiIiIgrVn+HtKo3S1RFSqGE3ugM5vB2/nIKIucK4C/FGsW6JiIiIiOgNCm8kPJPCstDC6QevAFxNqe66pCmLpTquS0WcGyPoMvLGdou4viqiJHuNrkuW9dq4LqXtu9XSnu3rautsxwAhgWN9uaxv2FrWOkoZ57Fa0q0d+8zLbZyX/NKxtW0/YwReLNVd9+tWt9a/96rbvGV5X/15cdRB8OPxrluxVO/bTl4OfpxERERERETjFl4Q/n4WgnKHputCdZR8+cce5qLzmIvO4/QhgWPZjKaFZAI40ZY1Yti0BoNCAimcqeuetBDP6MFXGqWrDfT257Xt7uFm6bMZ2EkyutsCqsbyeawXAKCAdT1dWqlhV1s2J+pDsxXkPsxjLnrWfzyZIq4PF3FjbPMMj8kjW8dAPKkv30MVCWRHmJIvluo4XrrFbnQeK7mK8bvNe7Nud38s4otef5KM45nvxrK5EyBrqXcICWT15fs1IPnJDNL96CnnlvMZ7Di961bOfUdTWETKCMwlrC0ouKkFOE4iIiIiIqIJEFoQLr4TfJbGERFa+KYFjQBwcNkCpiPmSGbjTAuQgea9AmEmblm/hVM9QP55B0WYRRzQRt8FpA710dEjpAQBkffqn+ZXY1Au/kGuPJJDVL2fhdD4btlmAfUGMPXODAbNfVbQe7AvM4JQz4wBb/HtthpQ29ZNI7UkQEgeGSPEx0nBqL/8agxY2DJHj7dj9nq31m25ihtFQMTaieGZZWDPQMguOI/zKQo4vQCWE3oHwiriRl37HycREREREdEkCG1OuPxLwXFSDY5DnQ+u1LD7hID2NWqe7KGXOcJ1qWmMgqsUVPfXPDsbmifzRgfHUHzmbeflLcQbZ0b2QF5uY/MJu3CSa7f4IqUgooL4agzNS2vCuf9xEhERERERjVt46eiFr6gqMXuqs6GJnmJNMU+jlIlB+VF9XvBc7uFRSHimJB9ctiD4pVdbR9WD+nkHZWHDTHnPFLFpSZke7DlzwivIfXCmv1fQexCQkty317xXEN+Wg6WYS5+Qwi2qA4PcNCLTgHKvJZRnithcCHgIg5R38O1hEamMhLXpGk6NTgD/4yQiIiIiIpoEIX5FWQW5D3uoTm+h/0VoZvBopI0/nDlGc5+igPX9GmBJUba9eKwgYvdCQNbrK9PKO/jWiJnLjQ4EPdV6C3Ho6e7aS8TKO1g5UcwU+MMEHk/CHJ1Vj3lq2yzvgajOPT92OU45t4ZT6zH2pZVblm3D58V6VhXkyi0zNfxwFjcXirlYT2O3vvjO6HTwqVvNwaWC1OEWULaXxe84iYiIiIiIJsEf/5v7679xF4ImVKaI68NZfIuKOBh3WYiIiIiIiN6AEEfCiYiIiIiIiH5vDMKJiIiIiIiIQsJ0dCIiIiIiIqKQcCSciIiIiIiIKCQMwomIiIiIiIhCwiCciIiIiIiIKCQMwomIiIiIiIhCwiCciIiIiIiIKCQMwomIiIiIiIhCwiCciIiIiIiIKCQMwomIiIiIiIhCwiCciIiIiIiIKCQMwomIiIiIiIhCwiDcS6aI604b3U4b3asixHHvM1PEdUdGPoxyEBERERER0YsILwiX5L7AMi+3cV1Kj2LjOO/UUcqMYFO68g5WovOYO2mNcKMTuE/A9dwEXk/vNOi00ZUl2+K87LUsjdKVZZnz3Fk7I0Z9XomIiIiIiMaII+H0RBLOt4HT6DzmovOYi+6hOr1hBMxiqY4szrRl8zjFltHhIpY+Y/nHnrFs7kRB6qNkbvdwETf72rL9WywfMgOAiIiIiIjehgkKwh2joy6j5m4jp+rvtxCHgNShvtwRtGkjtuf2gdrncYwCO7dtL6+lPLZR3uFT3SOluvs+Hdu1Zxg4R5718kg477TR3Y4BQgLHHiPaYqnuMiLdRE+JIav/rfQJKUFBr6xuN5sEqv8W9MrC2gIgLKUgApB/KRCSn7XtpVHKxKDcN7V9bSDe+I5cWdt3YhECYlgb5bkjIiIiIiIak3CDcGug12kju6AvSKN0dWQbHT19SOBYD/AyRWxO17BrjLquGUHagTiPuegZmlBQ1UdPoyIOXvI4JBld6yjwfg1T2/aOgaytvJby6CnnluPMBg4wY0jNfNdGj1uIZ7QAPlPEtXX0OHqGx+SRGaRLn5B6MEelzfIUsK6nvyuW8ooFrwJYVJD7oI5wdzttdDN32NW3m4lgClpAniniurOB3kkNijCLOAAURG2Eu41u5wiR8jxWchUAQHxGMALyvNzG8cx3nDaAqXejmLZAREREREQ0XuEG4dZALzqP04a+II6I0MI3LRADgIPLFjAdUYPMcg+PQgLHT50fXBAxF53HepDYMgDxnQDl4qslsK7iRhEQeQ+oo74KqoUdyK5ra6PPlo6I4AFmC6d6gPzzzgxq389CsIweAwXUrYHrzzsoC1v9GQIBybk1W8eHSh1d11POTx8SOHbLQDicxbfoGnI/nb/XOg32a5jado7cx1G6amPzfi9ghwAREREREdHrMEHp6H60EdvoP4Dknv79WuTlLcQbZy4dES/IGH2/xNqoXnaWSWFZMDsFDsQ9VBUtbbzcwyNiyFpHx9/PQlDu0ASQX41BufhHDerLO1g5aRmp6s17BUJyyzI6nkZkGnj8VfEqCRERERER0asxIUG4Or940xgN1eYJ/6g6RpPVFOjdC8UxetxEzxiJdjHiOeHqnOZP5qiv9AkpoYV6AVBHoQXLi8as1IBST7dGpojNBZc/G9bPOygL5kvR1O0quKk5A1e1M+O04agr66i6C/c54QAgIGL8Lo6IYO6n3oDl/PWfT2HG3Jv4zlgRcu0WCvS6hKNuiYiIiIiIXrc/x10AVQW5D3Gcd47Q7Rypv2qcYU5PT5dk9eVhOqWG3Q8V+/rlT+hut9HdBoAWTp87L9y2zxiOO20cKzXsftiBXBCx+66O404bWbVAqO6vGfs7EPcQuTpCt7Ol/UYvj15O/ThbqF4oWA6yT7+ylnew8l5G97CN7qH6q+bJvPlys1Idx0kz0EXjDHMF+/rfPraR1Y+ncTY4Ddxln8rFHlYKzjo4Mpdp59O9frRj1Ldr1O0IziUREREREdGE+ON/c3/9N+5CEBEREREREf0OJiQdnYiIiIiIiOjtYxBOREREREREFBIG4UREREREREQhYRBOREREREREFBIG4UREREREREQhYRBOREREREREFBIG4UREREREREQhYRBOREREREREFBIG4UREREREREQhYRBOREREREREFBIG4UREREREREQhYRBOREREREREFBIG4UREREREREQhmbwgXJLR7bS1Hxn5EHedl9u4LqX7fuddjjRKV22jvLZ1M0VcO383JLFUR1eWnry+nVbWqyLEEW0xfBLOO3WUMuMuBxERERER0dOEGIRLOO+0LQG2W3Ar4XxbQHV/HnPRecxFRRwM2KpYqtu3owXx56OKXX33/RmphzOtrPNYyVVefqdetKDfqNtXGmyrnR79P2GcT0+2uu3vBLCVechOE7X9hnh8Azq5/I7Fe5m9M8qtjvzodeDaZo3yPq1Dzr1+7feioTrKAnQSPumcely/fvc3o94cP8/p+CMiIiKilxdiEF7AenQec9EzNKFogbYjyM5EMAUFvfJwW242gDXtgTe/qv57VA5E786A+IwA5b7pvmJ5ByuhBeYSzg8XcWN0Xsxj7sMOZNvfVJD74Pb7yaLW9zzm9mtQ0MKpdjzrhXGVKI2SZNbt7gWQksxgUSzVkYXZEXOKrSGCoDRSSwpOT1qIr4YRhUs434ZRp6eNGLKWYNr3WCTZsuwMzYUtS5Cpta2opY4+BjuevNzG8cx37F4ofcvEUh3dzB12T1pPPFwZx0sKmrZNp1G62sLUxZ5W3j3cLB0FDJj96897n4PL2fW5fr3ub3JuzTwfxj11zJ2BRERERDTQZKSj66NAhwkIiCE7xIhOfEYALi+BVQmAhDVcou62bY9tWkf3sgse6zlG6PR1sguAkDzqGxWzbtPt4d42oujYtnV06zgpDDx+tawRTPktt47eOYIGsVTHdaloGRl0ju45Rjlt5R00oqgtH1lKvSYhu+7TOZ3AbXrB8CrIfVhDTusYkmu3UIRZxAEAErJJoPqv3kMgYW0BEJZSwbIQMiksP1zioHCJ5sKqpd4lnHdk5L3OmySjK0sD21m/AtYtHUoHly1gOqKVdcCxFETMiQVjO/UGMPXOvW59O6ccDsR5y3bt5NzawE4j9XpxG3nXsmoKX9Gzlw4RoYVvRqBaQfWH4jgWr6kbfvXnt08/aZQyMSgX/xhtzFbaQfc3IiIiInp1JiMI10aNnaOfwUd0CqhjFXlpFbgsoHmvPVRniri2jTCd4TFpjnrl5bZ95M86gq6XyWUUTh+tPW0AijGiZnk4F9URtqrLaJhYqmPzfs8cNfyxiC9aoCiW6jheusWuMaIYcDitvIO/L4DUoUeKbEH03Z6QTAAn5ujephG4plG6OrKl3JtBURqlqw30jLrdw83S5xDmawtILd2pdbRfA5KfQn1vgJhYhNC4VM+1NXMjU8R1ZwO9k5olSB+8rcfLAtSgNmaMdqpiyGa044yeobmwYa/bhS2sXWp1f9JCPDP89IP8agzKj6p6Poc6FglrCwpuapbr09JplZ2u4e8xj8bm5S1MuQa2TfQUa11LyCYFCDNBzphjH9b6892nnzgigl6X1g4v63XscX8jIiIioldpMoLwgZxzTvsDzYN/77CZucOpdVDt/SyExnfLQ7F1BE8NJMyRvzCkkVoSLKPn6mi3GgCoy5pl75E/5xxQ6+inkZp6AjWTYJg54Y0zI927ea+YAUkmhWWhhVO3kcpMCsuCoAX+bXQ7R0gJAiLvrX+kTUHwGOl8GgXVglZH5R4eISAS1ovaJBnHSaW/PiQZ3cNZfIuuIfcz8MaQTQI97e8PLp0p6ZbjRAH1hqNulZrZ1gvi0NMMxFLdPVgeeCx6Orcj2NQ7rbSOpeOQ3kmgtvs1e1m01Hn3TrwKcoUaprb1druK3oXiGLkfPHWjr/589xmUtt/9GpzdZa73NyIiIiJ6lf4cdwGCqSD3we3hNo3ItKIGMuUdrGgP4pP9QjIF1f01l9GywSNbcm5tcKBVEDFXUEewsxIgv+RDu1LD7oTPMR8ZSUZ3Gzi1vh+g3MPjYQLZTA27Ua0e3s9CUO4wMBlbWkUcAuKHbXQPzV/ngYEvI3wuI+PCeu4CHYvarpZ/7PkGm3LuO7KdVcSBMbQNNb0bQgzdzpb56+02uhmtvVruFYCaERO5DB4899dfgH16bq2JnrLl6Lwyj+X13d+IiIiIaJBXMhL+RD/voFjTeDNFbBpptE30FAHLCTMV3DYn/EVU0HsQbC/2si+DORoqycHnILZxcwAAIABJREFUhPeJI/LUVa3KVdwo1vR067IeHoWEkUrv7oXmhPswRvEl2eV86hkVw71pWyzV+wNwAHpmhZmSrM3vtaQoe8mvxixTGcypAGtuVZUpYnOhhfoIOlTycrs/AA90LBLOO4MDcAAQSxuIB+mIGIH+OeH2l8Tp00KaJ+4j2/qItn2E2fvr/Nzrb7h92qlz0uPb4X4dIxERERGNzxi+omwLcQje85dHRJiJq6NHJ4qZMn2YwOOJPgqtpqVCSw3ve0Oz/lKs7RggJHAcOMVbD/SOkBKA+LY9dfxA3EMV2vY6zmXqW6e7nfZwb4W2fW2SWsc4Md8orqexHycFQN9+oMC4gtwHdR59/4vZCljfN+tvHN/r7nTwbw2Kpf5O++bAqx0dGCqFXZ0zDMsLA60vhDsQ1bdr6yn5QYJU1znVUKcCmHO7Lan+h4u42R/8dX0DZYrYXIDZnvvan/exiKUNxAHbVArjfDtefng88z1werytberlks2OKOMa1Ot/BGnutpcfDlHWQfX3VHJuDbsXgtm+DhMDsymeMoediIiIiCbDH/+b++u/cReCKDRuaeUTR8J5ZwM912kLRERERET0mr3tdHQig5aJMfEBOBERERERvWWv5MVsRM9VwHqUr5YmIiIiIqLxYjo6ERERERERUUiYjk5EREREREQUEgbhRERERERERCFhEE5EREREREQUEgbhRERERERERCFhEE5EREREREQUEgbhRERERERERCFhEE5EREREREQUEgbhRERERERERCFhEE5EREREREQUEgbhRERERERERCGZvCBcktHttLUfGflxl+dVkHDeqaOUGWMRMkVcW89XpojrThvnEiCW6jyX5I7thIiIiIh+MyEG4RLOjeDaK8iWcL4toLo/j7noPOaiIg4GbFV9cFcf4lVplK6s/w6ZJKNrDYi1IOO6lA6+/lUR4osVMCiPepRkdOX+yhUTi8DFV/N8lXt4tP6Bcodm31pam7Acr34+7T/WDga1XF3POrW2s2E6Jsz1XNuOtXPIdn6c7drRpo31+oNL+7F6red+HMa6zraitTf3srrs1+VcGtuwLTPr3VmmwefMp/4CtRMiIiIiorcjxCC8gPXoPOaiZ2hC0QJtR5CdiWAKCnrlITetKJjKTELgqlIaCiIJNUAUE7N4bChjLtFLk5BNAje1iuP3Cno/AfmX2/GnUbraAhot22/l3JrWAaP97NegGG1CwnnnCJHyHqpum8wUcd3ZAk709deQC9KWMkVcdzbQ2z9zDQDFUh3dbeBUL9OHHcjasrxs3d88di8EbGqdA2Kpjm7mDrsnrf6NSjKOk4q5zRMgqwenmSKurZ1R+7dYPjSD9LzcxvHMd+xeuFRCeQcrRv3toYoEspZYOi+3cbx0i139b8SCs2A4P1zsa7Ni6TOWf+yZ5+VEQeqjumH/c+Zffyq/dkJERERE9LZMRjq6PvJ2mICAGLIdv5FOFw/f8e1hESm3UU/HyKB1m3m5jfOSZblj1NB3pNKD+E4A7i/Rm0lBRBqpmTvU773LY+5TG1HdjgFCAseuI5WO0UjnKGdCdj1OWLfvNvLpqoLeg/sS5d4RqkqriDe+OwLeAtb1ILgg9gVeYukzUg9nWL/0L0X+Y8Iywq525Kw740Z9m4lF4GLPc7mn8g5WPAP2NFJLQHXfPSujea8gvq23DQnZpIDHX2pnhJxbcwk4tbK+E6BYMwcKl2gKs4gDwPtZCNb6LFdxowiIaO37QHQLnt3EERHUABda+dYWWjj1KBOgdipMXfyD03v77+VfCoTkZ210O41SJtbfDvRt2M6Zf/0NaidERERERG/NZATh+ujdfg0KWsaI2UrOObLq7eDSHJkzZIq4PlzEjZHefobH5JEt3Tie1Jc7Rg0lGccz3y0jf0A2cADbRPV+Fikphch9FQe/FAgzcfuxaj+nD/o+tUyBkxag1FxGKtMoXR0h9XBmlskWsAhILd2p6+3XgOSnkcytnXqXts33Ft8Jjr9Io5QRUP13iMg3U8SXpILTQYFkpojNhRa+BWoHaaSWBDwiZenkGMH84kwKy4ICJNxTuOXcmto2Om10Oxvo7Xt3EljJvxQISylLGv4G4tAC7Z93UBZWzbJLn5ASBETeByuy2XmkBtRGMC+tIq7cISK7d0pBkpGdruFvt/ouiNqIfBvdzhEiZY/r03nOBtQfEREREdHvZjKC8IGc81FdgqvCV1SnN+zzUJ0jiiig3tACS41iBCnqyK++LL8aAxa2zH1ux4DpiOfcZec8Yjl3icj2LOp9gYp9DnF2wV4eT5kUloWWT+CqoFrQgvJyD48wR071Y193TT/21rzX0oPfA48NAWuuc6U/IYVbVANPIUijJC3ixnNk1GQfUQ0mvgT8bUkNNztOArQhTzEs4x8zxXt6yzjftlTrEwWpw4DvIyiIOH0wMx6+4BZNPYW7vIO/LwQjI6S7eoeqYh3R9memh+/hZunIHmgLCUQurZ1S+ui2hPNteI+SSzK6eofWfg1T2+6ZKu7nzLv+iIiIiIh+N3+OuwDBVJD7MGg0tIJc+ROuE3HcjGivzRPvUU05t+YarMRnBDxeVgBUsB7tX56XtxBvnBnBcF5uY3NE5X0p+dVZ1P+9xeZHCbiHkW6tLouhWRaDpxBro7o4bKN7qP8yhuNOG1lrfUsysgstnIrBsyEAoFk2g0j5l4LjJbXjRA7UhrxYR+Mr6D0cYVnrOEktCWierKlBZ0HE7rs6jlclAIM7Ow7EeTNYzRRxvWS+lMzeviScd2ZRH/ZdCdo10V2NA9DKr9RwahStiZ6yhch7cyQ+3mkja6y/hW5nA9X9NfRWY1Au9rQOqx2svJfRzaQgomKW0/OcedXfU88HEREREdHr9UpGwgMqXOIxuYFl/d8/76AsbNjeVL65oLi8QKyffa7vqKQRmbbMqc4Usbng+JOfd1D0ucFW5SpulJjx0q/hDTsnXEuZnvmENVzioFzFzfQqsjOWdPRMEZvT1qAugIJof4mXJf3e7PDQ5hwPNQpeQfWHgviqeXz51RiUH9XnzTHW6t3MApCw5mhD1kyG+IwzXT8ICeeHCTyW3Uah1RfYTQ2ZEWCsa527XbhEU7C8O0HLrqgX+l+utnuhAI0z28vtjCkV8JqW4HLOAtQfEREREdHvZAxfUbaFOASkDl/ie8ALOL0ABD0+KO9gRUsR7movfns8CfbGbDm3htOG+ZK4oV4U52Y6AhEV5MotCMkjrTyzuHG+4bq8g2/W/RpBcwW5D+qcdr+vnxq5hRhwWYAa5AqIL5hp0fmPCeC5Qa4b6RNSgttccD2l/AgpAUY96qnNcu4fVKfNKQRZnAV8r4C1bQLxbetXbFWQK6jp1/o8axhtqP+cZKdr2NVT/vWv5dqOAfoLB50v4nOdS25Nne+ff61PhThOCuZL/LR2Yp8m4Vy3gHXb9RBsWgAAHIh7tro9Tir21HXPc+ZXf0REREREv58//jf313/jLgS9Qpkirg9n8S3Ad7kTERERERGRikE4ERERERERUUje1pxwIiIiIiIiognGIJyIiIiIiIgoJAzCiYiIiIiIiELCIJyIiIiIiIgoJAzCiYiIiIiIiELCIJyIiIiIiIgoJAzCiYiIiIiIiELCIJyIiIiIiIgoJAzCiYiIiIiIiELCIJyIiIiIiIgoJAzCiYiIiIiIiELCIJyIiIiIiIgoJAzCR07CeaeOUmbc5Qjb73rcREREREREwYUbhGeKuO600dV/rooQX3iXedmyv04b3Y6MfNCVJTmUMqrSKF05yipLI9u6WKqPdHtvDzsRiIiIiIjo5f0Z3q4knB8u4mZ/HrlyeHsFAOVi7/+3dz8rjWTvH8c/A3ML1TRNy0zChAGDC21Q9AJiFtpl7mDAiRDciG7qZ6/bySbiRgLxG5g7iDVxEXMBaRTsXohCE0gYlEasi5jfoipJVUxiTKcr/ef9gobWSuU855SbJ89zTjSfKYc76IiuCjGtZCU3Kd9X05YiZnbSYQEAAAAAxiC8SnhqSs8eeUmgat1dge6qop/nV8cSVu8xLZ006mpuTEtGQgc9K9NdlevueBP2Z8ZaViZblTOz2Kncd63BiT+c7i6DVqze7w+WDWlmvU9M3lyeXPX31qlRV7Oxrnjg2iPr0+95pg517u9W8P1s5ms6zx+6Y54dajdfezCXfn9DgXu7OiLce9YVl6FkboSOCQAAAAAYUnhJeGlTb0/lJTkPExwzX9Pap21FojFFojFtvZ/VG39ilkvovhBrX39KZdtY3u+bmPUeM6uVaEyRwrXkVLXlXe9UpN0qdfKu2L43srApuzOiknO37n07VWn5z9ESutKN7mVoKiW5nQQvddwaL1qUNnyJ5B/B9WnHWtrUfDSmrVNHuiyOtH69WTpprEuFTjxX7Wvu+rx631nbo7uEDvwfDIz4PI3lWd3sFHVlJJR+8Y+2Th0ZL9z0f+DfkCRjOdGO9+hyWmvetT2zFb+jyk4rJlN7n7lCAAAAANAt1D3hdmbJTXAKUjqQEK8qOWcEkuWDZaOTXCVmZVwWvTbth0yvItqzQiy3Hf1hsjx4zIFSSb0yrnXUt03cUSXrjRNIpKVg9fgJ1WdrUXFNu+vW6FRuW+979clRfGPUfeRlZRa6P0gYIh6nqqOeSxDXlHGtY19ivffuWno+JVOPP8+BLv/xtjM4qvztf4MhnqdvzKtPznDPGgAAAADGKMQ94T5ZU5GsWy1NW5KdlSRHlZ2lkfaL25ml4ZPHgNHHHF1WK9Ehs8/UlJ7JUa0kyZJbye6T+LfXwHLb4OVUtfWUpPq7MInnCQAAAADDm+BXlMU1ZbT+X9bNnaGk1bsqbFc/yJl5PeaTqwePKUn6eCvHeKkH9dJSRRdOp535y7B0kktIp/9z26I/3sqZWX9Q5X8ga7qt1V1x2/867Ur0QyPsCf94K8eYVTLVut+/J/xKN4H1WVU+NS3nfUW2hnmerQr/qvJWQka/lwUM8TwHutKNY2jq95FuBgAAAIChhJeEW3agZbzp7SdutQfvmduqyHcImr+tvLSp+YLjOzRrPAezDRzTG/f40tcC3m71LiuzUNR9n73mnyO+EVyf9l7p0qbmC9e+68F2/uDXm61Lha49zdn/Beb62esX2OO/r6nStipO62L3+rj754Nz6fM8S5s6vjR87+vfaz7Yo89zoLIyJf/6cjAbAAAAgPH76dfIb/9NOggAAAAAAH4EE2xHBwAAAADgx0ISDgAAAABASEjCAQAAAAAICUk4AAAAAAAhIQkHAAAAACAkJOEAAAAAAISEJBwAAAAAgJCQhAMAAAAAEBKScAAAAAAAQkISDgAAAABASEjCAQAAAAAICUk4AAAAAAAhIQkHAAAAACAkJOFjZ+mkUVM+9aPH8JksW81GXSfWpAMBAAAAgPEJNwlPHeq8UVez9e/sUOYXHnLX9o3XqKvZsLU77M2WHUqMrlXlz+pq2p2s0439CfFisFCfJwAAAAA89HN4Q1k6yc3qYiemTCm8USXJOd3WfKYc7qAjudaVFrUraU+WlnStq0mHNClZU5HspIMAAAAAgPEKrxKemtKzR14SqFp3Vyy7qujn+dWxhNV7TEsnjbqaG9OSkdBB67rt7432Ktf94k3YT4w1rilDqr2TlixJ1qL07l3wJZYdqOoHW7W9mBt1NRvrig81z665PKlKbOmkYSufr/WeZ9+uBzfOQOypQ523K/7+de3RUt/9vv7n8siYA59n1720wQMAAAD4EsJLwkubensqJXO9W6zNfE1rn7YVicYUica09X5Wb1pJXepQ57mE7gux9vWnVLaN5f2eCWj/MbNaicYUKVxLTlVb3vWI2SrNrip/tq/kXbF9b2RhU3ZnRCXnbt37dqrS8p/Dt5Rn30mLlnYXpVr2SjeOoamU3AR8QzpqjbdT1bONVpJq6aSxLrXXpxiooA9c288yreTch97zLG1qPtp5Xkd3CaUtScrq6NRRfLGT5ZqJWRmX77QnSSors/BwDi5LJ/6/g9bzaT2XAWMOfp6WTnIvdRztrJ822AYAAAAAYPxCbEeX7MySm6h6Fd20U9XWwqZsrSo5Z8gw9tVs7HduuIxLKntJWlHzfdqTzXxNB8tG++erQkwrvtf2bkcfPOZAqaReGdc6WujXL+2okvWS8tKN7nOzbiJdkloJc7tS3V6DlqyOPtX0Rn9pXlK+NcdfDDmnf3mJqqRSRRdWQlO/S7IWFXeq2uoZzjDzLCuzMEq7/hPmKcn5tCqpLDvzj9KNVtv9qpJzUiU7Yu+58VJxyVu//mMOZC0qrmnFG3WlfXO7ac8FAAAAAMYj1CS8LWsqknWryWlLsrOS5KiyszTSfvF2cv9ko485uqxWoj0SztSUnjm3upJ/PuNpuZ/EPHftdcUvi+1q865d11r7ala1y7rbdv8xqVf6oLdDxZZV7XJd6Y26mhtSa16tDyYGj/kI330AAAAA8KVM8CvK3D3QrrJu7gwlrd57ku3qBzkzr8f8lVuDx5QkfbyV41VaA0oVXTjTWhvTvvRh2P86Mvzt3tafShrXqmVbcc4qmZLcVnl/NXiIeY60J3yQVU09l5xPXkN56lBrM8FX7P1d1bNFS2ZiVvelzeE+REkdau25r5086v9g4fEx+z7Pj7dyZtbZBw4AAADgiwsvCe86VKzp7WFutY3vmduqyHdolv9wrNKm5guOt598fAezDRzTG/f4clrpBwd5lZVZKOq+z17z8TLclvOsqa1ToxPLhqHKjulWgQP77fc1VdpWxXnCPMeurEzpurMXP/dSF6dO8CWlii6er+tg7oOOAgXo1gFz64rL8Obk7X0vber4LjiPzuFtw4zZ53mWNjVfuFZ8I9yvzwMAAADw4/np18hv/006CGAoqUOd517qOGr6WtDrSotWcgAAAADfhgm2owNP9PtLGYFfdLWgAwAAAMBXjko4vim7dl1p/15vDlQDAAAA8A0hCQcAAAAAICS0owMAAAAAEBKScAAAAAAAQkISDgAAAABASEjCAQAAAAAICUk4AAAAAAAhIQkHAAAAACAkJOEAAAAAAISEJBwAAAAAgJCQhAMAAAAAEBKScAAAAAAAQkISPnaWTho15VNf6u1tNRt1nVhf6P0BAAAAAF9MuEl46lDnjbqarX9nhzK/8JC7tm+8Rl3Nhq3dYW+27FBi9OuOd/hke1X5M5JzAAAAAPia/RzeUJZOcrO62IkpUwpvVElyTrc1nymHO+gIzHxNaRUViWb7vyhrKjLgMgAAAADg6xVeJTw1pWePvCRQBe6uQHdV0c/zq2MJq/eYlk4adTU3piUjoYPWddtfZnYrz33jTdhPjjX+whhw1T9esN3dzNfUbOwraUjxjd6vGbi2rfd+UtXf0knDVj5f6zPP/utj5ms6zx+6a9yrO6HrWVPdBwAAAPC9CC8JL23q7amUzPVuCTfzNa192lYkGlMkGtPW+1m9aSV1qUOd5xK6L8Ta159S2TaW9/smg73HzGolGlOkcC05VW151yNmqwS9qvzZvpJ3xfa9kYVN2Z0RlZy7de/bqUrLfw7VAr9nFnU1s94ncS8rsxBTJFrUVdcVO7OkSHRbFUe6aq/RUrvjYODafpZpJec+9Jinuz6v3nfGPLpL6MD3IYaxnJC8WI8up7XWjsfSSe6ljlvrGi1KG0/YQgAAAAAAX7FQ94S7yWJMkYKUDiTEq0rOGYFk+WDZkPEiLkkyE7MyLota6dOGbfqqsb0qp87pdo9kefCYA6WSemVc68js1xfuqJL1xind6F6GptpVactXAe6uPnvJf3RbF3P7Y6oCDzNPL8EPfJAwjH7zjGvKuNax74OSvXfX0vOpzlx9z/Pqk9OJx1pUXNPu30ejrmZjXfHA+gEAAADAtyvEPeE+WVORrFstTVuSnZUkR5WdpZH2i9uZpScmjy2jjzm6rFYG7fmW5CbFZfdguNShzOxTk+Nuk5jnZ7gs+roOAAAAAOD7McGvKItrqr0FuqybO0NJq/eeZLv6Qc7M6zF/7dfgMSVJH2/lGC/1oDZequjC8bdQfxnmL4P2iHcr6+ZOevbLwzb2R+c50p7wQa50E1ifVeVT03LeVx7/MOHjrZyZdfaBAwAAAPguhZeEW3agZbzZWJcKsXZL8p65rYp8h6D5W7FLm5ovON5+8vEdzDZwTG/c40tfa3R7T3NZmYWi7vvsNR9N10FmjboO5j5oq90i3mpjd9uz3bUIHr6293dVasfUufboPMeue33c/fND7eMvbWq+cO07YC6cr7IDAAAAgDD89Gvkt/8mHQQAAAAAAD+CCbajAwAAAADwYyEJBwAAAAAgJCThAAAAAACEhCQcAAAAAICQkIQDAAAAABASknAAAAAAAEJCEg4AAAAAQEhIwgEAAAAACAlJOAAAAAAAISEJBwAAAAAgJCThAAAAAACEhCQcAAAAAICQkIQDAAAAABASkvCxs3TSqCmfmnQcYbB00qir2ajrxJp0LAAAAADw9Qs3CU8d6txL2pqNuppnhzK/8JC7tm+8Rl3Nhq3dYW+27FBidK0qf9aVzKYOdf6UeEOX1Uo0pki0KG3UdZ5fDVw187XQnjMAAAAAfAt+Dm8oSye5WV3sxJQphTeqJDmn25rPlMMd9IeS1UphUc1UUqbKsuV++JFWUVunr3UwN+n4AAAAAODrEF4lPDWlZ4+8JFC17q6edlXRu6uuo+o9ptdmvTEtGQkdtK7b/jK1W7nuG2/CHnussuxAVT/4vp3W8AfXLFtN2wrMNdg+7s3lMyrW5i9G4Oc9M6aImR3x3QAAAADg+xReEl7a1NtTKZnr3RJu5mta+7StSDSmSDSmrfezetNKJFOHOs8ldF+Ita8/pbJtLO/3TJb7j+m1WReuJaeqLe96J6lcVf5sX8m7YvveyMKm7M6ISs7duvftVKXlP8fQUr6qfMpQZafXGqwqf/ZaN+1r27qY+7/gvvSZdS29864XrhVPjalF3Ptg4GBZqmT9awAAAAAA6BZiO7pkZ5bcJM1L3NJOVVsLm7K1quScIcPYV7Ox37nhMi6pLDMxK+OyqPk+hVUzX9PBcqcSe1WIacX32t7t6IPHHCiV1CvjWkcL/Sq9TichLd3oPjerqZSkkuRWrNcVb7+0tQaPKevmbl/pXF3nia75pJJ6ZRgycnU1c51fX/3uD6mqo1a4WVORQOhlZRY+o13/skjVGwAAAACGEGoS3pY1Fcm61eS0JdlZSXJU2Vkaab94O7l/stHHHF1WK9EnJKzOra68/+6ZMe2pdeDZfjD5HTqZH7OsqUjYYwIAAADAN2qCX1EW11S7eF3WzZ2hpNW7RdqufpAz83rMX/s1eExJ0sdbOcbLTtW6pVTRhTOttXHt9W7HI8UXO5u1d/9IyLi7eZBY25klRXaqcp5PubGXbnRvJDrt+082+p5wM1/j9HMAAAAAGFJ4SXjXoWLNxrrkaxvfM7dVke8QNP/hYaVNzRccbz/5+A47GzimN+7x5bTSDw5mKyuzUNR9n73mnxXP8/X2e6afV7XVbvMOHrzWzM3qor0HO6uVnarkj2fCX23W+nqyg2Wjc7idzZeJAwAAAPix/fRr5Lf/Jh0EAAAAAAA/ggm2owMAAAAA8GMhCQcAAAAAICQk4QAAAAAAhIQkHAAAAACAkJCEAwAAAAAQEpJwAAAAAABCQhIOAAAAAEBISMIBAAAAAAgJSTgAAAAAACEhCQcAAAAAICQk4QAAAAAAhIQkHAAAAACAkJCEAwAAAAAQEpJwn127rvP86qTDAAAAAAB8p8JLwi1bzbNDmb5ffZ9Jr6WTRl3NwD9bu5MOK2S7dtca2NakQ3qEpZNGTflU2GO663PytS8PAAAAgLGgEj52Wa1EY4pEi7qSo8pOTJGoqb1JhzUBzum2Iq21mFkn0fRLHeq88Vo3O0VdTToWAAAAAKH5apLwXbuuE8tfRQ5Wjx9UVttVy1Xlz2rKW4c6b13zVdzNfC1wX3fl3f++6ZlgTMF7x1PN3rXrOsn3jvXhPLsqsynffT2qp8F7O/F2dxwEfk4d6vzsULu+uQbW6JExh3OlG0d69kvnfQeubdeYnevd1eqH1evAGgy5tu7v1xWXoWSuR0zd8Tyo6nt/t0+p9pc2NR9dUqY0/C0AAAAAvn1fTRIuSfGN17rZiSkSjenoclprXjJo5mtKP69qKxpTJLqtiiNdFfwJjKFkSnrbuq6E0l4+ZGeWvGqsW5G9X/4zkJymVWxfP7r0BWPZOnjxT+fegpQeU0t1fHlWFzsPY1XqUGvtecYUCSRplk5yL3Xsm4s2gol2OnDvE6rvRkJr+su9b6cqtddo8JhDSyX1ynB0US17UxmwtqlDneda6+PG4ww5jJmvae3Tdvt9t97P6o3vw4Z+a7tndncuBNdv94+E7guxTrxm9qkrAAAAAACSpJ8nHYCfc/pXJzF6d630YlxSuedr3apq59pVaVO2JKmszILvHstWc2PaP4puUpJKlpZmHFV2eidUu4vT0sy0mo113623MiXZchO+g2WjM34hppUhc7POPMu6udvXq9ZcSje6z63roFFTcqerSmotKq5pxRt1pfvOpbUGT3Wt44y3ZqVNzbfGHTimHqytc7qt+Uxn7Y3lfTUb+5IcVXzzGbS2SszKuPxnhArxqpJzhgyjNabn0vsbGrS2j7j65Ci9UVdzsdgnAc9qJUpiDgAAAOBxE0/C7//tnWT72dUPerOc0EGjrgNJuiwqknn8PsnSyca0L0G2dNJ4PXRsgxJrO7M0YsI7SCuZW1X+rK5mriuGy35J4Bc0aMysqciAcFpJ+a5dVzpna7fUqS73W1vz4a+eIJjsdwU7eG0HaD9ry1azUZecqrYWRv3AAwAAAMCPLLx29I+3coxZJVv7d1OHWptxdPOx14tXlU9N6+qdmyGN3A6cmtIzdcYw868Vb1+80o1j6FXC1/LNyoH+AAACE0lEQVTu2xN+9clRfJTW67EoK7MQ09ap09lH/fFWTt/DzbKqXRpK/tG/Xd544c3csh/sfe9r4JjD2/u7KkfTWvLeZ9Da2v860syirx0+ISPwCkNTv7v/27XXfc+zrJs7Q0nr8JFEvsfaulHpxum8d09Z021bN176xvXi/CZOgAcAAAAwaeEl4aVNzReczsFXuYTuC8Gqpdu+XFezsa9X77fbVcq9v6t6tjHCV16VNnV82Tls6+DFB1XaG4zLymSrkjfmwYt/tHXa2X1sZ5Z0dDmt9IBD3XprHS7nP+hryGTeq7S2/h3MfdBbf5t44Vrxjd4Hj+2Z26o8X+952Nne31U5M9611K2OTofcZf3ImEMrbertqaN4yr134NpmTd+1denUvyc8q6NTpx3P2qei73l6ayC3Y+LBQXKD1laSVFam5J9ra/28ynn73nWpMI7T7v1/J/LGDfsr0gAAAACE7adfI7/9N+kgJPdgsbVPwT3Ffa+1D+/idOnvXupQ57mXOv5Bv+YNAAAAwPflqzodvbdVTT3v+tXvL2XI0Q0JOAAAAADgGzLxg9keV1Ymm9R5zn/qtXsAF5VRAAAAAMC35KtpRwcAAAAA4Hv3DbSjAwAAAADwfSAJBwAAAAAgJCThAAAAAACEhCQcAAAAAICQkIQDAAAAABASknAAAAAAAEJCEg4AAAAAQEhIwgEAAAAACMn/A6EikNYd1McYAAAAAElFTkSuQmCC;" vertex="1" parent="1">
                    <mxGeometry x="220.32" y="-270" width="724.37" height="240" as="geometry"/>
                </mxCell>
                <mxCell id="21" value="" style="shape=image;verticalLabelPosition=bottom;labelBackgroundColor=default;verticalAlign=top;aspect=fixed;imageAspect=0;image=data:image/png,iVBORw0KGgoAAAANSUhEUgAAAXEAAACUCAYAAABleRkhAAAcjUlEQVR4nO2db2gj+X3Gn6RHS0rTa3KdvWW77v7LZoOFD7xLvZVpyNGArBdnjwWXQgOhB7IEjrlg7Bed097Li08tyJimjsCy4MqVvOgdyGPvC1mQkHLB6jrYJhES2Shr78Wbjc+TS7r502uOpu2L+feb0UgayV7b430+sLDSaOb3RzPPfOeZsZ6PXPnHH/4fCCGEBJKn3r/3H8fdB0IIIV3y1P/+z4fH3QdCCCFd8tHj7gAhhJDuoYgTQkiAoYgTQkiAoYgTQkiAoYgTQkiAOTYR/8KXv4hHi3H88MtXOvr8o1cHWnzqCt7MuLb54mhH7RBCSJB46vFu/grezDyPkaeNl/fvY/kTF+3XAJ69/jweLT6vv3h0H2PT38RbHlt6a+s9fPX6RTx78RxeA/BqkxaX367gYvx5PFrsw9fGlpp+jhBCTgNtRfyP/uD38Kk//VjT5Xu/+hB7v2zzrPn9Cr6GPrwsvH76tXXHR157NY6XP2G+GsA7i314znNjz+Dlxbi9LQDvbX4bn/76PQD38Fb5Ht4qr+vbWxwFiq27RgghQaatiP/9X/85/urSnzRdvvfLD/G3/1o91E5ZtKjMG9GFH8U8Pvs28OprebwK3YYhhJDTSltP/N7P/rvl8u/99NddNfzaq3Hd427rc5sM4B3XZ/VtfBFvhgGE38c/Fd/Hc9E4HmU+jy+41n5v/15X/SSEkJNMWxF/47s/xb2ffeC57Dcf/g7//J0H3bd+v4Kv3W/1gY/jKxlTuNfx7/cBGJ44MIDPXQTw6D0slwGU7+Gtt5fw9Ni3sYyLWPQQckIIOW34urGZ/taPkfuba43vf/Nd/Pq3vzv0Ttn8IZ59GsDTn8Kb4XUs//wD4OIz+NyLAH7ycTwLAL/4Fd5y30AFAFzE4mLcevVcNI5HUXup7aMTQkhw8SXiP/rZf+FfvruHv/uLs9Z739n5T3xn59Fj6xgA4Bc/wqfL5/Ao+gxGPj+AL31Tf0Lluc8M4AtnnsWzAL7/A/0G6ZemPQT5xVE8ij7TobdOCCHBwfdz4qKt8psPf4d/+NaP/bdysQ8vX+zg/bBeZb/38/eBtytYfgTdRinfxx3j/1/55McAfID7P2nW6BW8GX5G/+/TF7G4OGrYMIQQcnro6I99JtU6JpfqGPu3H3RmozTzvu9X8PRYvuFxQ/yZIeL7+mODy/c+APAMPvfiPXxpOo+nxx4Coh/ewADeWdTtle8X8xjb1Nd/eTGOd170321CCDnpdPTHPr/+7e/wvYedPI1yT7A51vEqruDNjF56m48A6lzBhU/Y/9craLvKfuvr33BaIS+ew3MA3rt332WRCN64w0L5hu2bR+N49JnG59QJISSIPOa/2GyH8496vl/URfetty/ih5//FZb7v4hH8eZ/aGT+ted7m9/Gv33yed2aeXQfY2Ne/rdxQnlxFI+ifXjnxXV89u3HMihCCDkyPvLH8UVmbBJCSEDhrxgSQkiAoYgTQkiAoYgTQkiAoYgTQkiAoYgTQkiAeeqjT/3+cfeBEEJIlzz1zJW/PO4+EEII6ZKPXLz0KT4nTgghAYWeOCGEBBiKOCGEBBiKOCGEBBiKOCGEBBiKOCGEBBiKOCGEBBiKOCGEBJgnS8Rj81jfVpE67n4QQsghcXQirqjYuTMPWXgrpdaxnh02xLWOHfe/O/OQoeC21zJTjD3Wva14d0GO9AOri5gR38uuCW11NCCrX83aazoPYn9V58pWf1r0KaXWsbO9hmysow4TQk4hJ6MSL0xg4PJVXLp8FbkKoK1O4dLlq7h0cwIq0njBWDa5qgGVvL7ssiyIcQ054zOXFmoIJb0ETkFiCNgorVjvpNQ65s4t69vthNg81rdHsDudR7XTsaZlo/9XcelyHtW+Ebuvioq561uYNMe72Y85D5FPoNZ5u4SQU8nJEPHDJF1GFRJ6rrneV8IIVZYxXrDfmpGv4pKc7ryNwgQGLg86ttUVsR6cgYbdAgAMIxvrRbUwARX66+h1CegL2/ZPbB63hjTk5PIBGyaEnBaOVsSlCOYEKyHR9xjaUMIIoYY1hzYPIxuTUHyjC8F+DOh2SB07mQj2F8wrihB6JA27dwHdqplFTyGvn5BiADCMrCJ+nhBCjlrEtZJlFZjWyeHQi4R5ckgCucsuoVPGEMUWigetnA+JGdm2U5B0eerXTKvmKl4Qzjly9hXc2JxyvEcIIafEThE8cbeAA0iFRZviJJFGblXDmQvDAKrY1SREk+exZFo1lt2iIDEkQRqaNa5i4ghBQjTTeGOUEPJkcUpEvAWxeYyeLSHXVQU7jOwd4UmYQ0cX5/13VwCsoLipAZWydRJKvRSBVCljRri5a90QhYbidJeePiHk1HDqRTz1UgTYLHpW4ebjfHNDku3X+6pszccL4wgBCCX9P/Jn+eHbdey4bBN1fBA5xO17BshTpAkhLTndoRCxeaxnzmPJw2IhhJDTwOkWcUIIOeWcejuFEEJOMxRxQggJMBRxQggJMBRxQggJMBRxQggJMBRxQggJMBRxQggJMBRxQggJMBRxQggJMBRxQggJMBRxQggJMBRxQggJMBTxw0BRHcn0+k/cqkiZv0fO4AbiQUqtG/uN/tPG69nh4+4SCSBHKuLO39IWwhZi81jfdi+rO4TxSInNY90jCCKluqLUzPddyUHqu5pjufbQI5veHLMl8GYARas5MH/H3LsfUNTu5s5azzv8wvzd9R33762L7Xn8Fru1XkNfXGNttp5nn+x1G0SvTX/c7Xp+l6rHb8M33a79fTRvt3mb1YfO/UQPByGkM468EtdWp4SEGuN3vgsTGBByN63P3DyJkWouYvMY7XMHMwPQHqCKFezuea2k4HamH/sV8SBewfhNMb3nKiZXNWBvV5+DmJm9mYfHKUEXviTsmDqfcydn17ATe4DJhZrn8pRax9z1LTsb1QqpUHBbbO/yFIpnRyzxS6l1zJ1b1sfQsM1ZRPfydtYq4rYgKyrmhjR7uwtAwjoJmAHSUyg2bhZIy870o74RQYz1dW9s2vufO69Uzq4hgZprfluN0524ZOy/1km7fZv691vFrtd4CPFBQOwUd8Xjqs7clZK7SjOWe1avXhR2se+5wEyjt5Ej/cDqojN0Ii1bIjojX8XAuLPCSqlxnFl9HbmHrTqhIDEEFN8wjvrCBAbM7M0GhhG9DhSnOw+/UMcHWwi+gsG+GnKey6vY1XqRMKtOZQxRScOu0b8ZuVl03DB6zmr2uADMlGuQzoUAAPIFCZo4n+kyqtJ56Et10fQVFm3lk5pDCSNUyTd8F/bn53FrSENOLnc0Tvc2RvtqWDLbaNOmOj5ozJF+AmcINumGIxdxO+y3k+xKZ8UzuSph1BTp2DzWk5KeN2lWr60OVv89RU/MqFRVBbr4uD+jIDGk2QetHxQVibMlfLXNOnJ2BKHKchPRdhGL4oakAZEmtke3KGGEtAfoUb1OjrrwWHFysQeY9JWgtILdPQk3IuZ2hpGN9QJneyBDt6Kk61Hh/sIIQsZ34QfLsstEsL9g9ycV7oX2sEcoBkTLZBhZxfl5sb9+x5l6KeI4obduk5DD4WTYKW1x+opzQ5JVuXliCIKFcZntv9KxL29D0FA9G27iFY8gJAQbt8e4NG9rdbiqcF/04gZeFy7548KVh+tKphO/XIqgp2xbFPtDrxhCpH8nCei2SG4vgjmfJ+UZOY9962T+CrBZs22jtGxsS+/rLWyhiiaVr+e27b4i6bz6kobOY82yaTREFX0e5OwruLE51WT/8DlOdxXepk1CDotA2Cly9hVEUbJ8WYfPWihiQ5MQzZgCr/kQSb8oGDxXRm5TwqACwCEmhoXRgdDqVWUvEsLJCH3xhgotpcb9V+EWooDoXvyZC2a16/JuO5kfrYScNcQqdjUJPddgVP815AzLZEaeQlHrNeapHWJ/BlGE5Lj5awvxVQyUgDPaA8/7AO3ayK1qwhzAadPcfQBNOo8QFCSGJOEKMY4QjP1JVXyOU6/kG2y1pm0ScngEQsRD5yS7UjMOOgtlzHGTzLO679QTNy75e14KA+U01NIWzoTH0CM0q7fbmdCq44ONNy4reVwSve7YPEb7tM6q8EIRGw5hUTDYp2GjdEBLKV1GVepH1DzBGIJm38QVbY6Qc378YtzI9LakFNzORLBf6OakrO8n5hMfM+Wa06aJ9EOqlDHTcHMyjyo03Z6zPP0241TGEJUaq/DmbRJyeDx11A3qFc+s8aqGnA9LZeaNEkYzcexsxwFoKK7WEDpnLEwvonhn1lhm4m+77Qj1ATkZAIrYUGYR1UrIATB93Grh8C+MUy9FIFXyHicHBbe343YVl6xjJ6mhOD2I8cIKxtNRrGfq2Enqi6sLV/2dYBQVO8le62Viu46EVsLkzQmoSOOFhTB2MnXsZABAb896ouiaKizTrbIBQ/fk7Jp+pQEA0O2RuUpeF0axTa2EycuiSIvj1MV0XLj6yd6ZRdTcrLEvVRd0qyyl1pHoMz/rWjctIxeu6/0w273p40TZZpzmvqCtTjXub922SUgHBD/tXlH1m02WRaAf6Dc2pw7h5qbfNgkh5Hg48kr8sJEvSAAeCO/ol7uP9Q8n0jIusaAihJwAgl+Juy+xYVzuPq4qnBBCThCnQMQJIeTJJRBPpxBCCPGGIk4IIQGGIk4IIQGGIk4IIQGGIk4IIQGGIk4IIQGGIk4IIQGGIk4IIQGGIk4IIQGGIk4IIQGGIk4IIQHm6ES8Icy4w7xBRe0sVuwQSKl1R5/9h0o8Jhxz6IwIO1hfzfg7v5mnB8fRX3ceaGwe6832k1bL3PtYJzmj3bbZBjkr5J669l/Hso7m3hlX6BUK3vW+4DmHRnvCfOrfn95n9753Yo6XJ4SjrcQ1O2Lt0oKGaObkBsfK2TUrV9H8d7xp5EY+p9GXXEVIYIcz0uzSQg2hWAcnvFgUN/byyFX8xqsdEEUV5jaPap8rDzTTjw0j+PrS9BZuZEyBG0ZWsZdNrsKZWWlkqdrbHfG5fx2gzTbjnLu+ZccKbvZjzvzOjESjnPWdAQmfRYqZCar3tQRYuacG4nHWwX4rZ9ewI+xjly6L6UY1VGFmzSoYRM2KzLP2vekSNNSs9Y/3eHlyOD47JS0jVxFSzx3Vjli1GCG/yV5AsgN0HVWWa92GCqDjeDYjEq4ZsXmsi5WT47WC29sqskKV5aiUuiaNF4S0oplyrTEQ2kC+IMbZtUeO9GO/nMZMuYZQ2DWvd+aRajKWlFrHbUUMYfZZTaZlQRzSWKvYeaB6+LQdeydH+iHBPLmsYPymHWWnlraaZ1bGenDGZ8Dywds05sBR+ZvpT3ZYSfS6BPTpQihfkJz5m+kyqu7tNtlv1fFB+6eWjYzZnmvtx9kaPc6uuuCViKX/Rv9aGfqcKGGgXD5og+SQOFZPvPpQs1PrCxMYECqA3F4ECQWwQnUXas4KwxIBBbcz57EkVGBIHtwWmJH1CrE7Ee5F1KzApkvA0Nih2xSpcC+0zaIr1kwIi5b9lkHDiF7X9NzMdBnVvrCzr1IEiXPLQtXnHEsoGbbS3HOVXox2PFfOPNDQOTs0OaXWMXduGbkKHIHHJl6ZldalfSaCfU9BauSgbTbZKnokDbt39THe3p5FTyGPqpHXqb6rOfM3syMIObI8fdKQewpnsePXgoz14AzM7QgnZnH9dBkIK0iFgbW0EZp9Qq+knyRO0I1NsaLTsxK9DqLG1cKOBHkzrdyxcxmX2Z1d3pkBulPYuD7bYSWvoZg2KrDCLva7OThbIGfXkDhbwlcdwRdC4O8CkPBbFStjiMJMk09jrcFSsZPerapPGItYTc7IVzsM4xhG9k4cZ1Zfd+WBhpC9U8fowynhZO3ut+p5srJtpTyQ7OQ7675Na+691rs2j/XtEexOu/a/tIzcni22t7CFqvvKoe1+awRJiycrh6U0hSIitoXjG6Fwcr2feziC0YeLDHs+QRyriDsroDhCFduDzlU62FDF6V070uMPzArGb3bhMz8m5Oya7rO2yvdML6Los0pKhZ02VaIPTkvlseGdhVp9qEEaiqOnYJ4QhtFz1hW3p6iGd9uq0k4jt6r5KgQOr03HVrGrSYgmz2PJ3B9dFo94H2OgBJzRHlg+c3v0QGkstBL5FRQ3NX+ba1VsxHqsvjmsHHIiODYRl7NrSPTVsCQcNKagIzaP0T7XCncfePufdx9Ac9wY86ALT7yhvxfcHrm5ww8jq0TQwkH36pB+1dHh0zYptd5ewAG9upb8+MG6lVGcFk+A+UZLRdwutlA88AlStxe8wqzV0hY0CPaAMoaoYBfYN9/aianu8frJWj14m16euCGggvWSeinSxIoxKuqC63tttt/G5rHeVsD17SaGJFTLfi5B01irSP5v2pITw9EGJRsV3xxg+NvmTruC8cIYdpKz2NmeBVBDcVXDDXHdwgSWXqojsV1HAtCrbzmte+nXVOwk69hJGp/VSgdMom/M7XRs0+xLpo6dDFBdyKOaDHew/Sp2NSBknJR89dM6sQlzCKC6cBUvpPWqzDrBOea2BUoYIW0LOYcoV7GrxTGaHcZMCYBhVSUAADXk/Gy3Dbr/C2DI/L7NbcuYMb9PR5umeOqiBEhCn+xM1ZSqX0kY76I4fdXfFdkB2myFOj6IkKpbfADsfdbYrv2dddBXGCcDAJLXPq+o+kMABtW2Qm8zI18F1Lpj/0KlDBU9uOW5xmHcUCUHhRmbx4QvW+S4ic1jPXMeS74tBELIUXOCbmw+IRiPQ554ASeEBIKjtVOIful+aDddCSFPOrRTCCEkwNBOIYSQAEMRJ4SQAEMRJ4SQAEMRJ4SQAEMRJ4SQAEMRJ4SQAEMRJ4SQAEMRJ4SQAEMRJ4SQAEMRJ4SQAEMRb4aY29nsd78P4XfKjw4jsbzD3zAnhJxsjlDEFdzeFtLtDZE8fgFsEtBgZn42RFSdVHSRPv759ImidndCcYRirzWk2VsZmw0hDYScTo6pEtfTcPY7+MH6x4YSxpnVPIroR7TTHMyusjuPCyNmLtA/fzuMrNKPDSOJaHIVjiQaObuGBISIP8S7CLkmJFgci4inVD2ayy1+jirKVaXJ2TV7mRgCHJvH+p15pITlnRy4qbCEjVIaxU3gRsTveoY14VENytm1hr6nVGefWo2zG9tDnxs9iSiU9OiXYfs0VqcKbm+ryBpzd1sxw6pd8ysEWDsqfdcy9xi9XxttJJ3Znv6q5hWM37TzU9XSlhDZpyAxBBTfsJNzBvvgSJQn5DRy9CIeUZFAviHaSs6u6UnjRhU1udmPW6YIKCrmzi3bOZALQEI86KUIEuby6RIwNOYv6R0KBs/qmZFqaQvwfcAbVe3lfEOwrTq+jKokVvV6juVGaaX9OLtEHR/Uk801PY6rISzauGKYXPUKze1F9NwyJlc1hJIj2J3Oo2rlhyq4nTmPpctigrwh8LF5rGfsqvjS5Tz2h2Z92DlCkrpWwqS5bTO2TDzhtLBNAECO9NuZlWIIccxImF8oeeeyEnKKOGIRlxAd6vV4fxjR6xKkoVnrwJ0bkiCd0w+/VLgX6IvbB3WyFzjbIwhuDTlTBApFbIhJ7y5REKtDOTuC0N6ukZtZxEY3lkoDaeRWhapeCSNUWTYEtfU4dY7a9tDs6tXqJ+y+Gxmben/jCJkCf+08JMfn01irwFe6fEuME47z32Bj/qSiYm5Is7934f2djJEwf/dgXSEkCBxxso+G4vTrgDKL9WzVVY1rKE57HKwGnQS+OkjLuOS5ni6okOJ2kC0ALTIMFNonpLdCLW3hlhKFjBWEwr2olsX6vvU4TxyOcF+Bx3XP0BX0q+OaM0VtTJ8v7GI/E0EiJoREXzsPSXvQcLVEyGniGDzxFYzfdF96r2B3T3LcpBKpPtQQSqr+LBJlDFHoFklLYlHckGrIiRXfdKkDS6UFhQks7fUjGlMweLaEnKWBrcep0+2jgCvY3TuESljk7gNofXFvi+TuA2h9I46njUYF2wiAfYWhqEIKvbC+l9XRphKXs2uNAq6viLUKoG0WjSuYYWRjvcJrQk4nx/R0ShovTJdwJmnbGzPyFIoQbnQJN9HU8UHkKuJlvfvmpbAsCeR8WBEOP9WksIt9KYKEAtuGEW/AWcJq3gDU7YVoptG3nSlriGbiQMHZl1bjPCgzb5QAy6qx+2PeFJ4bkmxbys+NxMIEBhZqws1SYQ4KExhY0Iyx17GTiWB/wRbbmTdK0My2Yg+Qc/vxhQksid+prxubChJDEhzf97ZzH9q4bo5fv3nuvvdCyGkj+BmbsXmsZ85jqaEyI4SQ0w//YpMQQgIMRZwQQgJM8O0UQgh5gmElTgghAYYiTgghAYYiTgghAYYiTgghAYYiTgghAYYiTgghAYYiTgghAYYiTgghAYYiTgghAYYiTgghAYYifhCMn6s9/oT5gCXdi9mczX43/cTMLSEnmyMXcUdI8Ek/SBW1i3AG0pbCBAbMnE1CyIE4wni2YWTvzCIKIT4r6DSNfiMHhnNLiC+OrhI349Capu4YsWQel9lydg3r2XkjTaeOnW0hqi02j/U788iqzap7RVjPnQiEhiBlfV1jHTHVx5E+I/bVI4ldtAtcbabUOm5nW9kJ3caz2ZhJPu52veZW/HyzuU0JyxvmrxmuOfA/nuZzK2fXGraTUv2Pk5DTyNGJeMvQWr1Kv7E5ZeUq5vYimBMiu6ShCLBgLKv0YlQUEymCKPL6ugs1hGLmwTuM7J0R7E6bWY1T2Lj+ii0MioqdpITitJ3nqIcxp/GCebmvlTBpZj1agcFGIv3lfON4YvNYz/Rjw9qmO08UCA2Zy/WotsQhWkpydg1z17cwefmqFU0mZ9cw+tCe28nNftwy509RMXdu2c6zXAASYlSaFEHCXD5dAobG/GWdmpaJ8H36G2fzuVXHl1GV+hG1hF3BoJDr2XKchJxSjkzE5QtSi6Uh9Eg1LAl5iDPlGnC2x66kKnkr7b76ULNDeAEANeRMgRUDeGNR3JAkOwdyexZRSULPNf2jqXAvtNXXDzd5/tp5SJVlYZt6gK8YYGy36RVubIiYj5xQN6FkXRdkx7rDiF6XIFnZm3rWpjl/qXCvnbtpXn2I8y7ObaGIDU1Cj3gSbHqV47wCSvQdRohzGrlV4EbEPAGFEbLmuvU4CTmtHJknrr6rYW5IF9cj9cO1Eia7EMQgUl2Ywm5sFuvZqisgWENxerDpyaq6cNU6QXZEC986pcYRquStq5eUWsdoF024UUtbuKVEIWMFoXAvqmXRMGk9TkJOI0dnp6QXUdR6nZfqFlXsaqJFMoxsrBfaZvFg4muk1ze7pJ4p1yC1sgfEqt4vdx9A6xuxLZvYPEaFS/72HMQTX8H4Tbd9s4LdPQlRxXt71YcaQknVn0WijCGKLRTbiuQwes4C2kPDEInNY7TP5xDaUZjA0l4/ojEFg2dLyFknkdbjJOS0coSPGK5g/OYUimfjaLyRaIuPZXvs5V3VZDek8cJ0CRAusR037tIyJlclJJo98liYwFKl115unYBMqyCOEEy7xrgJV5jAwIJmWziZCPYXjrI61Md8Jmn3d0bWvfc5j3Gq44PIiWNssEWEZUm0uDEtsoLxQs22NjLnsbGq2YtNG0a8cWydtFrMrcFMWUM0EwcKzr60GichpxVmbJLmxOaxnjmPpcsyZo67L4QQT/gXm4QQEmAo4oQQEmBopxBCSIBhJU4IIQGGIk4IIQGGIk4IIQGGIk4IIQGGIk4IIQGGIk4IIQGGIk4IIQHm/wGL7+2pka/IvQAAAABJRU5ErkJggg==;" vertex="1" parent="1">
                    <mxGeometry x="391.59000000000003" y="30" width="369" height="148" as="geometry"/>
                </mxCell>
                <mxCell id="23" value="" style="shape=image;verticalLabelPosition=bottom;labelBackgroundColor=default;verticalAlign=top;aspect=fixed;imageAspect=0;image=data:image/png,iVBORw0KGgoAAAANSUhEUgAAAeIAAAE4CAYAAACHTPDqAAAgAElEQVR4nO3dfVQUd74u+idnDdeRCSqxI2xIq3QgyG7EF1SijPiSF7mJnVbOXjAmmmRORvZCrzMajWGbO8t45sQxUWNm3Mg65GTFKDNuueeiHYhXk+yoMOqAGBKFEQfTqCgR0qRVHNy5zrrn/tFdTXV1VfULXV28PJ+1smJ3VVeVjfS3fy/1ex7IzMz8X6Bh4/bt22hvb8cPP/yg96UEZcSIETAajRg9erTel0JEFFb/Se8LoMgajEUYAH744Qe0t7frfRlERGHHQjzMDMYiLBjM105EpISFmIiISEcsxERERDpiISYiItIRCzEREZGOWIiJiIh0xEJMRESkIxZi0lxhYSFqa2sxZcoUvS+FiGjAeWAgr6xlMBhgsVhQVVUFh8OBgoICGI1Gn/3u3buHgwcPwuFwAABSUlKQlZWFyspK9Pb2+jyOBOm13r9/H9988w0mTZoku393dzcOHjwIi8WCy5cv4+LFi8jLy0NdXR1aW1tRUFCAW7du4dixY/26rnPnzvXr9QDw1FNP4be//S3+5V/+BZ999llAr/n000/R0dGBl19+uV/nzszMDGr/RYsWAQCOHTsGg8GAJ554AlVVVYiOjkZBQQEuX74s+55K/81kZmZiwYIFXvsIPzPxv6mCggLEx8fjT3/6Ex5//HGMHDnS6zX379/HkSNH0Nra6vd6IykzMxMGgyGg9yIYevzuEQ02P9L7AoJx8ODBgPZzOp0AgFWrVuH48eO4c+eOlpclS3ytixYtwpgxY1BdXY3q6moA8BSBQApjSkoK4uPjYTQaMXnyZM/z3d3d+PDDD8N/8X7MmTMHTU1NikX4008/xdSpU32enzp1Krq6uryeKykpwZYtWzS5zujoaDz88MOoq6sDAMTGxiIqKgoA4HA4UFJSgkWLFuHnP/+5T0GVOnfunNfPSigwwp+feeYZREVF4cKFCzh48CAMBgOSk5NRVVXlddy8vDzVaz537hzy8vKQkpKiWKy1cO7cORQUFGDRokUBfwlYtGiRz79Hf+/jYJWSkoIFCxagsrLS84VfUFBQACDwzyciKdVC/NhjjyEhIQEnTpyQ3T5//nx0dHTgr3/9a9gvbPXq1Z7WxMsvv4z29vaA/qELRa+8vByZmZnIyMjA2bNnw359/ggtrqioKNy+fdvr2qOjowEAV69e9XucESNGYObMmfjmm2+QkJAg+0GgFXFBPXLkCADgmWee8WwXF9UjR454tXa1LLCBSkxMBADcuHEDADBq1Ch89913XoVCWnSkLd9Vq1b59LhItba24ne/+52nNRsog8GAgoICn1YzAFitVq/H/lrS4VBVVQWLxQKDwRDwv7ELFy7g2LFjXl9M9CR9T/397MKBBZj6S7UQx8TEYMeOHdiyZQuqqqq8tlksFmzevBkbNmzQpBCXlJSofgtVcuPGDSQnJ+NXv/oVjhw5gg8//BApKSlhvz5/ent7cfDgQU/LF/D9kBAKl9qH7MSJE9Hb24vq6mpkZmbi5ZdfjmjLo6SkBElJSV6PpQV27969qseYMmUK/vVf/xX79+9HWVkZpkyZgg8++ABVVVWaFutRo0YhPj4eq1at8npe3IoTE77snTt3LqguVWnLcPLkyWhoaIDBYPA59/3793HhwgXPY+HfSaS+XKkRrqU/8vLyEB8f7/P8qlWrAv4yHSrhS9Tx48c9vRcpKSlIT09XbEwQDQSqhfjcuXPYsmULNm/eDACeYiwU4S1btmj6D9xkMmHUqFEoKChAc3MzZsyYobiv8M28qakJTU1NyMzMxE9/+lPcuHEDo0aN8nRJRsrPf/5zjB07FgCwYMECLFiwAA0NDT4fvNHR0V7dleIPqvLycq9jCt2jmZmZKCgo0K0bUNxS/uqrr9DR0eGzz4MPPoja2lpP8b137x7mzJmDsrIyjBs3DiNGjMC3336r6XWKu5Ojo6NhsVjw7//+7yEVPXH3s6C7uxuAq1V97Ngxn3H8QH83xowZo9gyBiLTGhZ6oLq7u3H27Fk88cQTPr8z4i8V7e3tuHXrls9xpF9cIjVGbDAYkJmZCZvN5vU+tba2ej0Wz92QtpalX5SVvjgIvV0APPM6xD938Rczrb980NDgd4xYKL5CMRb+LNdKDqfo6GhERUV5PuxGjBiBHTt2eLaJJzLJkY7pRdqHH37ouc6vvvoKU6dORU9Pj2e7MDmmtrbW57VKk9IEwgeznmNxJSUlAIDs7GzZ7Xfv3vUqvh0dHUhISADgGmP+4YcfPGO3kZCYmIj4+HjZyWLiQid974Xi09LSgu7ubp8JgAKDwQCDwYDRo0d7frb+Wt6CW7dueXqAEhMTPQVc+DKpdREG+nqgsrKyYLfb0dTU5NmmVEyFgiP8Pbu7u2EymTB16tSIT86aMGEC7t+/7xmGkLNo0SJER0djz549ngl4FovF87MQJkoKBVVpzNxisSj2HmRmZiIhIcFzjmDH3Wl4CmiylrQYa12Egb7xPQCora1FZmYmoqOjvX65R40ahcLCQhw/fhytra0+XYRS0m7CSH1bHTFihGesOFDi7jUxaQt6IDt16pSnULe1tSE9PR1TpkxBUlISmpqa8PXXX0fsWiZPnoxvvvkG3377rdf7KswjED7AhX8P0i970sIrbWkJhSAqKgqZmZmorKz0aiEB/mdCO51OpKam4le/+hX+/ve/w+Fw4He/+1143gCNSMeI7XY7EhMTMXfu3IgXn97eXsXibzAYMGHCBBw/ftyzz8WLF5GWlobExESMGjUKALy+GH/55ZfIysryzOkAgJycHERHRyu2lDMyMnD+/HnPOS5fvozk5OSw/R1paBqws6YnT56Mq1ev4uGHH8atW7dw8OBBZGZmemaiAsCdO3dw9epVmEwmtLa2eroIpYQJXHp1Ed25cwcffvghDAaD5znxn9UE0vofaP7jP/4D3377Ldra2mCxWPDUU0/h22+/xYgRI/DYY4/h0Ucfxf79+yN2PSkpKYiOjkZNTQ0ef/xxzxc6uQ9OcS+GP+JejeTkZDgcDvztb3+Dw+FAZmZmQIWot7cXubm5PuOqUVFRMBqN2LBhA4DITDoKl9raWs/M70iKjo72+bIudv/+fc8dFYDrvb9//76nCEsLudPpRFRUlKcQjxw5Ekaj0W9vlDAUJRB69YiUBFSIxWPCAHzGjLXw/fff4+rVq8jIyADQNwZ0/Phxr/3sdjsWLFigONMzJSUFkyZNQlRU1IDqIhozZoxnEpea6OhojB492jPePVCsXr0aAHwK1pQpU/DjH/8YbW1t6Orqwr1795CUlIS2tjYArpn2ACLaLT19+nRcvHgRDocDly5dQl5eHiorKz1djNKeh/v37+PWrVuIioqC1WrF/fv3ZVvvwpeptLQ0AMDf/vY3APCM4wtFVCD01gi9HcLtVP7GVYVW+2C5Lai3t9czvyFSxfjq1avIzMxEYmKi4hfWqKgoxMbGes3PiIqKwp07dzBq1CifQh4bG4v79++jt7cXsbGxuHfvHv7617/i6aefhtPplP28uX//vs84NZE/fguxuAiLC6/WxfjEiRNercbMzEzcvn0bra2tXl1Fra2tmD59OiZMmODzi7Fo0SJMmjTJa/xPmE2txy+Kw+HAhx9+iMzMTBiNRsTHx+POnTs+k7LELfcnnngCV69exZgxYwD0fcgJE0a0buULBVe4fUkgnj0tnjWdlZWFkSNHoqurC19//bXXOPHkyZOxd+9efPPNNxHrlhYWABGKrfBzX7lyJW7evOnz/kVHR8NgMGDq1KleH6rR0dFISkryGt4QxpZHjBiBL7/8EiaTybNNPEdBqWta7nYqKfEX0EgW4kWLFsHhcPidZyEdI9aLw+HA1atX8cwzz3j9fovH3W/fvu35Qtvb24u0tDRERUXhxo0bcDqdePzxx7261KdPn+7z82lqasKIESM8v3viz5ze3l589913XucgCoRqIc7MzJQtwuIx456eHs1vDZgwYQImTJiAyspKz3PibiZhHEb40BBuY+ju7sb777/v+YU4ePCgZ/ar3IdwJBQUFMBgMHiKV0FBAaZPn+5zLcJ4t7AgifQeTfGXES1Jb18CgKefflpx/3/6p3/yKrTifadMmRLRbumUlBTPeC3Q9+/i3r17+MMf/oAnnngCq1ev9vpAzczMRG9vLyZMmIAf/ajv16O3t9fv4iniQuxPdHQ00tLS/PYMOBwOlJWVBXzc/ho7dqznVqNAeo8G0n3Ex44dg8Ph8LoHW7jVD4DndkLhy5T4NkDx7YbCFwvh7yZ3njFjxuCFF17w+YIqzJ4Xf2FTmu9BJFBd4lLPBT0A3yUuxbeQyN1LK3zQBjIJK1xLRqod32g0esb2JkyYgAULFsj+cgtj2JcvX/aMLYn3E1q/wu1QAqUPCjX9+UDYu3cv2travFrCwgIfJSUlOH36tGfpy9dee012dS0p6UIg/gSzxOXy5ctRV1eH6dOnw2g0yv67EN+ycuHCBfzkJz/BhQsXApr8B3hP+BNavsIqVWq3IzU2NsJgMHh9uRSfL5SfbX8JXeDS36tgb0GS3gakx9+FaDAZ0GtNU/gN9m/mwa41TUQ00DF9iYiISEcsxERERDpiISYiItIRCzEREZGOWIiJiIh0xEJMRESkIxbiYWbEiBF6X0LIBvO1ExEpGbChDxR+90fE4u+rTgIjRut9KSH5AUDbt6eQ1FSq96UQEYUNW8TDzAMPPKD3JRARkQhX1iIiItLRj75zOP3v1V+mn+KfpgGN//ef8E0w2wAkmUxos9v9nGAuij9ci9ndH8O64SOvLQ/l70Tc9/8DFz+/6Hpi+i8xLfkvaKy4gYSVBcCRN9EhpAsmvoC0/LHo3PV7/MeTbyL1oT+hseJzn23fez3+DD+WHkcwfyP2rs2C89B/xrqPQERE5ONHEemqjBqB6Ggg6oEH4H02A7Kmjsf/d/0z2H22uS8wKiqA7tQ/4e3/8iesfv8ETn2cgv9q/TU+dW/5Tz+JRdQ94RiT8ci8qbh7ZjceeAD4f/8+Ho8+vRjf7v0EADD26Scw6lYlWh54ALh7H/9bdhYMD/w7uvEskn/xBEbhG3wnXGfHH/HdrQ8w9ucxeOjvDajveABel1n0Pv70/Fic/G95eOOYZBsREZHbAxMmPqpd1/Skp/FfZsd7P3f3Ej75v+rQ6dkOnPnwU1xUOMRjk9Lw1xalrb7+9x3/D96KP4rpy38HAHh45R+QPKFve2/Ddnx9WAizn4rxr72GRGHu0u3TuLC9BHfdD/teews3/sen+PEvpsH5f76J74SDzXkTs59JQfeRF/DX06KLePZtfPZfE3AkcwV2BXzlREQ0HD0wMUnDQhwGqWlmXLrYrPdlyPvpW5izGGgtfqOvOBMREQXhR/9rQJdh4IEHgIF5jZmYON+Mew2/QdeAvD4iIhoMIjNG3C8PDLhbbsb9HzY8ZgJgL8ef/ueXA+76iIho8BjwC3oMxCLX9a9WdOl9EURENCRwQQ8iIiIdsRATERHpiIWYiIhIRyzEREREOtJ+spZ5MVblJADoQE1pNZpEm+JzliHPHON5fKfZhvKaTs0vSXfztmPu/E40btnhWTyEiIiGJ01bxPE5y7BqmhOVNR2+G+Oy8eT4a6gsLcOe0jLsKT2FHvNMpGt5QaqKUW0/jdKlul1A/ywtQb3dhk16XwcREQVF0xbxzZoD2AMA5sW+GztvoScmG0/mXEZ5TSficzKQ2HMNdVpekJKlJajf+TS6ylJQdEi8YQYmbt4M4xj3w1snRa3YfKTtWgGDe1PvmS04V9EAABi3pgpjO08ievY8RHu9TvyaSZi2a57rxfb9qN1d4fqzaQMy17hfB8Bx2IKLJ9F33PP7gSXCMVpwad1rrlupDq3GrFQb2uynYVw/R/L3ICKigUrH+4ibYSt1IGe5FauKAFw/hT3lOixlWWxDW+HDOLpeoQh/vx+1WyokL5qBiZsX495uC2rtwuNfYqLpRVxxB0UZZmegfbcF5+zu48zbgYsnK3BxXYVK13Q+0tbEoX2dxX2fcj7Sdm3HuJOvee5bNiyZiUvrLLgIV2E25s9Al/sLALZZkXSpBPU7W1GdmoLF28L6ThERkQZ0LMRmWIuyEdNsw54auAry8jGoLD+FmxG6gk22Vqyc/Be8b5qDrdKNpvkYO6YFl3yKsLAtFtFrqmAUPe0wAnAX4t4zv3cX5Qb0fg+MjZsBoEH9gubNhAGTYNhVhVTPk07cM4mPe9BTlLt2W3wXFjm0GrMOFaPa3oq22R8gycpqTEQ0kOlXiM1JSOxpRqV7clZN+SnEFmXgsbhTuBmh+VpbrSnYWhxid65XN3UYibupQyHqZk9iDSYiGvD0vX0pJtYzxoq4MYhR21cr26xIWt+IzJ2tqC4WPW8/ge5bk2DMn+H7Gvs19I6Zh1S5bYFo70TvmDjPOLDX86YVSJsX2mFRbEPbzmk4t57d0kREg8UDE5OStcsO8ty6JNLT7Ol+lt6+dKOmDDbJMHGaOR0Xm5ugvWJU259Du1fL2HtCllcrWDKpSjxxatyaKhg7vSdviR8Lz6Wa3A/EreB52zF3yaS+yxKdU+44HktLUL/zERw2WX272YmIaMDSthCHQeQKMRERUeRxZS0iIiIdsRATERHpiIWYiIhIRyzEREREOmIhJqIBo83eGvQ28fPSfdSORzRQ6LiyFhGRi1wxTTKleD2fZEoJ6Bhyxdjfa4n0xBaxBsatqUJmqIt9DAszsejto3ij7CjeKDuARckyuyS/jtVlR7F6xcwgjrsMLygdz5+EZHyxcSEqpgHPPDUb5zdOwfoQDjNkJCTjC+l7MG0KzucnyO7e957F4N1/Xqi4n5IkU4rPf9JtwRwn2NfJKrahra4EVgCuNQX2YaLJz2uIQqB9ITYvxqqiQqwqWuwTcRifs8y9TX778KT2Cz8DEzdXhb7y1oBxFsdez8VbhR/hit6XIujohUP8+PbfcFH8+PmdOHbgNcwK6qAFeO/oJzjm9d9OLAvD5fbHrOJyHHuvQGWPBFQsHw/HZ19jp/jpxq/xESbhi6d818A74uj1euxw9gR1TeHqUg5n1/Sm2f+I5kOrYQv5CCLztmPu5g14UHYji/xwp18esXkx8sw9qBHyiGuAnOXZiNfygjRiLT2NNlux/x0pcJffRklhLkr2n43gSe/heqdvUQndQazNfRaLcvfhIpw4/uazWJS7HgfCdHStrM+fBEPjWeQ3+m7bWdECx7R0vCvX4L39N1xED244Jc8HkJUt7oaWdiW32Vs9/4mJnxN3Z0uPq0wlg3xpCZZM/gtOD9qlYgd5vvowo1secfzYGNxp/gKeNbOa23AjJwkGIGLpS+GwydaKlfGfYm2W929sb6cJabs2++QGP5i/D9Piqj1LWoofey176Ul2cr22N38fps2OdW1bUoW5SwDAifbdQvSicnbyg/n7kIrz6J09zzfH2J/k17F64wJ4Dlv7a09xnLHxKFK/PY4xc93bncex9/W3cSOA16qZsfGop3v5SkUu/vB54NckdxzZY/joQP477i+MHV8jw1OECvDe0ReRBgCYhN8cne96umUfFq096Prz8ztx7MW+ZUkv7nsWa//o96+JZe99gqybJxA/fz5iAcB5Ar9eth31ou0vew7rxPE3l2Pbn90PH38N//am+3WScy577xNk1e8DXhSuuwV7c9fjgNdrXsSxoy+6jnziTfxsm/v9S0jGsxO78UmFUou2A3sbJ2DbTxOACtEX7Ma+9+xIxRfeLWk/Wdly48PiYiwUaaUiK2yTFmvV1rBiBrmL9elpwLHfSpaL7USvcTvmrnH/UERL0yova2tSzSBX+53vAnyW0g0s9xwAtmHxeiMjUQcJ3SZr3ezuwahpyYhHp3vd6QwkAnDGAYhQ+lL/WFBa9y5yb36ApCzff+WGJYvR7s4r9skNVuCKNcxH2q7FuLe7L9sYAFDxImorXMV25AkLLp4Uv9L1/NiLW1Ar+iWdtuaa54MievY89B62oPZk4NfjKnhTcfmdXBy7DLjGYH+DF77tK2wT505Fwzu5OHZ5Jha9/RvMf/Jt1zZ3sbxVkYsSv0XQW8M7uWiA63gG6cYAjztj41Eswkd4q9Dd/nR/8D4s2a+5zN+H1EGszT3oKraWm16FEoC7CAN7c591tXQffw3/9mY5iu2ioqkibf4UHH/zWWz780wUH3gTzz+/HfV/dB3HGncCv86VnA8AUID33oyHTTgnCvDe0Z1Y9se+1nbai7OwN/dZrIWrMFuLZ+LAtu34We52zCoux2/iq/q+SIjF/QSGK995F1KJI83fYcPyh7EeHar7eVHJypa2fkMd1w34dYoZ5J4dsHLRdzhsqpI8Pwmp80+icd1ruOv+PZ1oqvD+PfWhnkGu+jtv2oDMNRno3m3BOTvg6sLejLTOvt9/+dxz9+tFkaj1E17FrCLp34cGCv1mTTdXo8ZUiLwiMwDgTnMzbiAW3w+GIuz+UMexV5Gk8I+7L48Y6DrfgtQME/zmEYfMhJFjWtAuKqxd51uQOn9835iUfb/nF7S304nouACuZ2I8xlz+2F2EAeAALl1+CVn/MBOAqwV1q/Zd9/az6O4Gkt3bEmdPxZjLHwVdhP3xf9xYzNh4FLdqf423xK3kQ6sxK5iYywDNGh8H54nf9XU3//kEvnLOR7wJQACF2Hnid+6CfRZXO4Gp493v7Z+v4eabL+I3R6d4t4QB4PlZSMMkpB39BC/3HQk3H+87p/PEv3mu6cDaZwPuDn/GEO1/fLejFw78JMAjiqhkZSvNmg6WXCtYfBzVDHI3a+lzMF/4GL79eE607xcKaQW67SswVpRBHnbGOETbq91FuO+cRlG2uf/c821YbGpGad27aKvLxdqsMI15U1jpevtSU1VZX9d0XDaWj3d6T5gZqA6txqxDrhZxm83s9YFCenOi4Z2PYdjo3XIPvUWsF3dLHDNRfOATHHtT0uUt7hofLFSysqXdzP0hbWGL+c8gtyB3OnB024D8RxGCYlTbX8E4lUYD6W+A3L5khjXPjJ7GU4NofLgKRVkpeB+viG5xkDMDE+dPguN8Rd9TD7lbqqYNSBXGfT3suHcrFiONcsdyfeuNjpPeGmXHPa/sZNc5ey+e8OoGC9qVm7iV/Fzf7UDJryMr2YnLZ/yP894485X3a8MksOMewB/eOY4x+aJbmQ6txiyZW2QCLsL2m3DGxuNRydP11zoRO/9nfTOhn/8ZFsS2oC6AMeLAnMW2Zc/i1yeciB8/s+9aJr2I954P7Yj11zqBuPGyM8CPOHphiPWTDJ4QDYN0Vrk/frKy+zvbWdqilpvc5aGUQQ4Axb9A7s2PFbqsRUwbYDS1oFs0ROTqZQIwb3vfuK9AKYMcgOLvfHsnek2L+2ZTmzbAaHKiuyHAnrWlJai3vwKUpbBbeoDTtkUsySPOKSpEjieP2AxrUTYSAQA9aKosQ81g6JaW2GpNQXPpabxnK4ZN1DKOnr0Zc2e7/tx7ZgvOuX9h71ZUw7FrhXvSRgsuHW5Baob4iA24cqIFcz0TsrwnVnV9chLGNcKxhclaDbiyZT9G7uo7J+z7PePFIbv8NkoqduGNjUchlPgrFbmirurgXts3qWoZXih7CRPdz0/ceBQz4ETDO8s8Y80zhO8n+UfxRr5owpXqceXPnxzgJDFVf94OW8sneFnoDhZapH9cj1+PL8dvPN3ErklVfWO3woQpIO3NT7BAmDjl73ySCWCuiVxnPdfys33xOPbiJzj2oni73HiyjD/+G45b3vRMPPOarNX5NzieUh//fcb8MAzOqzgSyLkAV0EohGJ3sNJELH+t40BmSisWY083+WmUXhJaxhaULv1HNB9S+lodC6NnQpXrd8/793IF5u5aAdw6iUtn4uBVV+070G6vQuquKqQC3hnkSr/z9h04d3g75nrOCTgOW/yMSQuKUe3+4uP3SwXpjnnERORlff5CPOs8i4WfyY0VJ6Bi4wRcLz+DV2XuSuwP6YpaoUzi8jdGrKrYhral1zmOShHHQkxEEgmo2DgJ+OwLn3uJ1Ys0EYVigIwRE9HA0YH88mswzErGM+Knp03BS2hhESYKM7aIiYiIdMQWMRERkY5YiImIiHTEQkxERKQjFuKBxLQBmbu2Y5zC5nFrqjB3l+u/sEchPrkLb5QdxQtPqu0UXN7v+vyFOP/PyXgGCajYuFA2Pi9Yzzw1WyXr1p2Fu3Ehzm+cLZ8QpCTUPOLk17G6bBe0Tp9OXHEAb2zUOkBR9HOaNiX493DQnJNoYNF8ict0SyFyHnE/uH4Ke6qa+zbGZWN5nhmjALgW9TgwKBf1kCNNWQoH1wLx7uCHsB1VOxed9wDRwmEOh3i2bQze/eeZeKTe9xaZ0PXg1f/+BYR7XYPiL494WOjB9dsQBW304obXvcKu25omAWiRubVJm3MSDX3atojNi5GDU6684dJTuPFINqxmz0ZY88bjWqU7j7jyGsbnLUa6phekjSGRR/z5OrxVGEhcYJCcvTji/rAd+MKdRzw4ORw9rhW2xE8mJOOLjRNwvbwFLZE6J1whDfWlFg3OSDRwaNsibq7GHk8DuBnfXM/G1LGunMP4nAwkXj8Pm7sFHJ86HqMQg0fNQFOzwvEGIJ88Yq/8UPeSdxDniOaL8kkBn2zgW51A/j7Mda9BLc4f9ccr29Qrm1SNeElJYZlJ8Xbv5SiBwIM5jnx2xrMMoqul6vLMU7OxbZq7Tf/UQpx/CgDu4XNhtaaEZHyxfHzfe3T7Gor/+2XPsRxO4N1/XognR0te51dfiw4AHI3ihSmU8ogD4LwJrDiAN+a6fmZeS26qZSc/uQtvTK/HMbwkm7+cuOIAXp4r6lIQ/1wkxxW/bsbGo0j98iMgX/i5XcSxwnUBZH/1iH5Ol7HwHdGmjstY+M5lAAnw7eNJQMXGh1H3GfDSU2PdF9SCjIoOeN5zz2PXkBsKqxoAACAASURBVMVLscLPVOWcALZaX4WR4So0xEUwfcmMRx/pwbV6V+U1jI7Bnduuj/R0SyFycAo1okI98CnkEdt34Ny6HSpd0+58UrcH8/chVZwNPGYeUuP2o3ZdhbuoF2BcRUNfoVbwYP4+GDu3oHZ3g9dx/Rfxszj2ei6OYRleKHtOss1VhFGRi7c+Fx4L+7j//tI4owsf+P3APPLZGRz5TKVr2vOh77I+fyFennYZR9z7GaZNwiOffYGMRndRl4bUy4rBu/88AdfLv0B+h/A4He8mhGGpxtgFWPQP7uzj5NexeuPzmLH/LBoCyHNG8ktIrcjFW+/AVZifeh2Jn78NrDiAl9O/wt7Ct3ED7qL8D8IJl+GFjfGoK8x1F9dleKFsF2Z83ldsJ+bPwrHCXPwBrsKctWImGvbHh/wz828sXpp1DcXvfI0j7qGBdxM68GpHB/LfASo2TkLFtA7kY4qoCAeiCkVZVdhka0VbnZHLT9KQFKFCHIec5dmIabZ5WsAuBuQst2L8NRv21HQi3ZIdmcvprwDyiJW5A7zHiJ6yi7OBW3BJKN72E+i+9UtEm+An83QGDGmxiB4jCn3wOW4InpyFic7j2CvbXe36gNSGd8sVABzOGADu1uuVFk/xPtL8HTZYovEMoP7BnhCHqaNHwrB8Ic6Lnm6JA9DvMcmLOPaOO8bh8he47HwVY5MRUJ4znMdxQnh/P1/n/sIzE4vSY3HlM1cR9vHkLExEGiaWHcUiz5NOOJLhaTXfqv2j5yff8E6u58/a/czu4fMqobh2oO7KJGR53tsO5JdH44vlC3Ee3fjonUCLcB9PuIr9NHJl4wuJBq8IFOI4T7EtF83EctzuwShzNmJrylDe7NrvodFAj30QtIb7kUf8YP4vYcRJNK5zdRu7Ws7huCghiSkcxwpE6C1if9bn+3ZlPtuvI7rdDqYlNsBd/ghvveM3w0lCu59ZQG7fg2N0NBITEPSXH88QkIktYhp6NL59yQxrkW8RBoCbl67hDjrwjTAebJ6J9BjR4wFPPY/4bmdnX+6wSHRcLPD9NffYbT6MPnnEIvMKYMR5OPwW1wb0fh8L44oNPufrlys3cSt2KtKTAddYsnis2PX3l+b7Bv6B3oMbTsBgkN7SFIPEWMDhdLd+E5Lx7ESfF3us/+l4wN7pv7h29MIxejw2hOEWKlVPPo8Z+ApNl9GPPOez6O4GJk5336705C7vseIrN3Er+SU/t5rJ6e/PLEAJyXh2YjfqPEMOCahY/jC+qjqDhZ/14kmLZA1rVRaU1rViJT5AErulaYjSdK3p+JxlyDNLP/g6UFNajSZAklcsel5kMKw1bS09jfcSPpZ8oHl3QXsmXXlN5nKi/UwnjHFnXWPJXtsA74lcMl3acOWTXjwpv71vmxrpZCzXdQmTtsQThq5U/BqOp14F3pdO6AqR16Qs0aSraVNwXpj0g2583hiNqWjCws96vCd6AaJJQYBcl7bqJDB046N3vlbM3Q2IZNKUz8SoJ3fhjfw0z1bxpCrXmPBN7H1drgta9HNxHsfez+Lx8vT6vlaw5LhwHvccZ8bGo8j6NgwZzF7U3lvpNvEEOtc2g2hi3Pr8hXhpYmDv/SZbK5Z0vMpgexrSGPpARP2kXUYx0XDAlbWIiIh0xEJMRESkowjeR0xEQ5NoMRQiChpbxERERDpiISYiItIRC/GgkY+0Xfsw0eR/z37xE8VIREThpW8MIsywFmUjEcCNmjLYBs1iHlrKR9quxbgX0VWyiIhIL/rFIMZlY3lRBpyVp+TX0x0WilFtP43SpXpfh7IhEfFIRDSA6RaDiM5TKC89BcDsszzksOAOjugqS/EsYO8VY7imCkYAPjGJM7Zj7hrXGkbSiETlGEQ/0YsyK3oJbEVzYGbyDRGRZnSLQRzWim1oK3wYR9eneKXIdO22oEu1azoWxrTzaFz3Gu5KIhLVYxBVohdNG5C5JgPduy04Z4f7sXcKRV/yjQ1mkxVbtXhPiIiGKZ1jEIefTbZWrJz8F7xvmhNCQXOifb+7lWu/hl5kuCMS/cUgKkcvPjgjA9H2alcRVmErmgNbsQ1t9lbMKUvBYma0ExGFhW4xiMPVVmsKthbb0GY/DWNYc1WVYxDDEb1oLT2N9xZ9h/dNKWwRExGFkW4xiMPaNiuS1jcic2crqn3mQdlx71YsRhqDOaB6DKJa9OLdzk7ANNN9u1I+0rzGil022Vrx3vRGrGW3NBFR2GnaIo7PyUAiAJitWCXMlvbEHfbdugQAyCnEqpweNFUewLCo2YdWY9Yh96zpS+KWcQOunGjB3CVVmLsE8JlYpaBr9xZEb96MabvmeZ4TYhC7PjkJ45oVmLtrBVzRiy2A0CI++RouZVQhdVcVUuFE++79cKyZ6TmGtfS0OwuWfdFERFpgDCIREZGOuLIWERGRjliIiYiIdMRCTEREpCMWYiIiIh2xEBMREemIhZiIiEhHLMREREQ60jeP2LwYq3IS3A+EhT4oVK6lK6tRu7vC/85ERDQg6JdHDDOsOUBNaRn2lJah5noCcixmtaORSDhzgjfZWlFfagnLsYiIKDgRXVkr3VKIqbcV1p02L8aqaU5Ulp/CTdHTXFnL1yZbK1bGf9qXD+yTJ+ziySs2bUDmCqD9YgZS3etMe2cZW1Ba9y5yb36AJCuXsiQiiqQIjhG784gvyS8knW5KwJ1rl72KMElZUFrX6l772V2EAcC+A+fWWdB4xgnY96N2nQW16yyiQgtgzDwY8XvXtt0ngdkF7qAHAKhCUVYK3scraKsrgTWifyciouEtQoVYyCP+QjbQIT5nGXJGN+PzYZH2EKKlJai3v4vML18NsdXagnahMNt34JxMkMRWawrWfjkN79lPo3Rpfy+YiIgCEYFCrJ5HHJ+zDHnjr/l0SZPEodWYZXoV56a/G7axYam+uMNw5iQTEZEaXfOI0y2FLMJBUe9CvtvZCTw0XjaTWJ1ClzcREWlOvzziuGxMfQQAzMgr6pstfaOmDLZmn0ORyFZrCppLT+M9WzFs4m7qkwfRPr8vk9h7QpayTTZ3l3dRlVaXTERECphHTEREpCOurEVERKQjFmIiIiIdsRATERHpiIWYiIhIR5qHPhC12VsVtyWZUsJ+LrljKj0v3UdJuK+TiEjAQkwRoVQclahtUzum2jHEj5VeG+x1EhH1FwsxqchH2q7FuLf7RVyx9+9IwRYzaUEMtEUr3WdAFNZiG9qWXu8L6VDBKEui4UfHPGLX0pfpMcKePWiqPCC7FjVpLXwFV06ku3XFBTnYoqtFkd40+x/RfMjqVYRZcIlIoG0h9uQRN8O13GU2rOZm98pZnagpL0ONe9f4nGXIm2VGTRWX1dJWMartz6F9fRjWk15agvqdj+CwyYqtCruEo4s5GNJWcTDHDv06VN7TpSVYMvkvOBymSKtNtlYs6XgVs7gKGtGQoW0hbq7GHk9dbcY317MxdWwcAN9mr2F0DO7cdmh6OcPe0hLU73waXWUpnoIxbk0VUk3u7WuqYAQAtOCSOJ1pxnbMXTMJgGTZzEOrMSvVhjb7aRhVCrtagQtnCzTJlKI6Lqx0TcFcg8/fReY9FbM+PQ049tu+Lype2dErMHfXCgDS5UjHY+LmKhjHANKfxVbrqzDWvYs2m5nZ0URDRATHiN15xPWiIhyXjeV5ZowCgJ5mVFaxX1ozxTa0FT6Mo+u9C0bXbgu6VLumY2FMO4/Gda/hrmkDMtcUYFxFQ1+R3mZF0qUS1O9sRXVqChb7qQ2BjPWGSmmMWHhe/H/pPiFdn8J7KtoBKxd9h8MmUevVvgPn1u1Q75o2zcPIwxbUnnR9UTLmz0CXp0hXoSirCptsrWirMwY07kxEA5u+ecSdp1BeWoY9pWWovDYeecuzER+ZCxpWNtla0VYIvB9SvKET7ft34C4A2K+hF3GINkl2ObQas0wfAIWtmkU0BkoosqG0tIMpwoG8p9bS52C+cEax216RfT8unnT9sbfTieg46RvO7GiioUT3PGLBzZrzuBETC4P2FzTsbLWmIKkMWKnVh/bSEtTbXwHKUnTtLk0ypXgKqXSyVqAFus3eqvifmP/31ILc6cDRvdq8H8yOJho6dM0jFovPyUBijxMcJdbINiuS1jcic2crqn0arXbcuxWLkcYQjltsQ9vOaTi3Xr5bWq7bV1zYtOimlrtfWPp/OUIhl/tPltp7WvwL5N78WLFIMjuaiAS65hF7xocB161N5ZwxralDqzHrUDGq7adReknckmrAlRMtmLukCnOXAD6TtZQsLUG9u3tWrftVWnSlrdVwFWMti7si2ffUgtKlrluWFDE7mojcmEdMmgm0MErHZvs1i1nluMFcU6j7AwhqAQ8iIhZiIiIiHTF9iYiISEcsxERERDpiISYiItIR05dIc5HO+VWapBXMBC3mDxNRpLAQU0TokUdMRDQYsBCTisGVR6x03mBep7YCV8iFn3nERKRCxzxi6T7MI9bP0MgjFhdPuUxif/cEqxXt/qREMY+YiNRoO1nLk0dchj2lp3DjkWxYzd67xOcsQw46cEPTC6E+7lWgwrHm9NIS1Ntt2KSyi9razXJrOPeH0jKW4uf9FWG56/HfqlZ5T915xKfDtOT0Jlsr6kst4TkYEQ0I+uYRx2XjSXMPakrb8GhRhqaXQhjyecRyxw60NS4u1tKirHoM5hETUT9F8PYldx7xJaHvOQ45T5nRU1MNrpsVAQrhDF27Lahdtx8OONG+24LadRbUeq0zHQtjWica11lQu/skMLsA48THVQ2T8KVl4ZXqT5e4UIxVj+En8MKTR1wkzSO2oPGME7Dvd7/fFu91pk3zMPKE6/lL9kkw5s8QHbMKRVkpeB+voK2uBCqrWRPRIKFbHnF8zkKMv2aDjTkPmhsuecRKty2Jx4j9zdSWjjMrdaMzj5iIwiUCs6bl8ojNyDLHYBTEqUxAYl4h0hUmdFHotlpTsLXYfxdyyETds0k69paKu5XFzwGBTcSSe73cfkAg76k7j3ibdnnEK+M/xVoTgyWIBjuNC7EZ1qJsxDRL84ibYSttluyXASdnTWtnmxVJl0pQv7MV1anSrlRRHnGws6aLbWgrfBhH18uPkSrlEQvbwj2j2l8xVXpNSNTeU3cecZJaHnGaK4/4blAntaC07l3k3vwASVkcIyYaCvTLI9byxCRviOcRC8cMpRhLjxEw5hETUT8xBpE0E+k84mCOE+q9xAEVd+YRE1EQWIiJiIh0xPQlIiIiHbEQExER6YiFmIiISEdMXyLNRTqPWHruUHOImUtMRJHAQkwREak8Yn/FM9j1p1mMiUhrLMSkYnDmEUvPFci5lY4fliLMPGIiUqFjHrFr1a1E8c5c3lInQyOPOBzn8le0Qzk+84iJSI22hdiTR9wMofBazc2ioIceNHFZywgrRrX9ObSHY83ppSWo3/kIDpusiitrhdrFHKpQzid+TWjXovKeuvOID4cpJmmTrRVLOl7FLK6sRTRk6JtHTJE1TPKI5cZ2petcy+0v3Vd6nbJ/D+YRE1E/RXCM2J1HXC8uwjFIzytEOgC2jjWmEM7QtduCLtWu6VgY086jcd1ruGvagMw1BRhX0dBXpFXDJHxFavKTuBhrdk4/gReePGKTNI94h3rXtGkeRh62oPak64uSMX8GujxFugpFWVWuGMY6I5fRJBoCdMsjdiUwlWGP+7/KZiA9b7G7KFM4DZc8YqlQi7BSy1mMecREFC4RKMRyecS+bl66hjvaX8ywtNWagqQyYKVWH9pLS1BvfwUoSxlQ3aVq3dGhHEfM/3vqziPeq10e8XvTG7E2pC9XRDSQaFyIzbAW+S/CAJA+y4xR19sYj6iVbVYkrW9E5s5WVPs0WkV5xMEqtqFt5zScWy/fLa00TqtFBKKYuHiGoxjLUntP3XnESkXybmcn8JArjzg4FpTWtWIlPkASu6WJhgQd84glty/x1iXtDYM8YoH0mKF0TwMBjGkzj5iI+okxiKSZSOcRyx0r0OsJtBubecREFG4sxERERDpi+hIREZGOWIiJiIh0xEJMRESkI6YvkeYinUccyiIekV4Tm4hIwEJMERGpPOJAjxVs5KEm9yETEYGFmFQNvjxiufWlA70nWLNiyzxiIlKhYx6xS3zOMuSZYxS3UyQMjTxiudW0Al6YA9pdJ/OIiUiNrnnE6ZZC5IxuRmXpKdzU9EKoz9DNI5YWXbl4w/6cU7mYM4+YiEKnYx6xGY8+0oEaFuHIGYZ5xErZxEqvCRrziImon/TLIzYnIbHHCaelEKvcXdd3mv2HQ1CIhkEesbSQyhVgtXMHfV3MIyaiMNAxjxhAjBmxdiGT+BR6zAuRExeZKxpOhksesdACFv4LF7mWMvOIiShcItAiVskj7mlGnafr2gFnTwxiDXD1XFPYbLWmYGux/y7kkIm6Z5MGSG9pMC3vQLqkpYER/t9Tdx7xNu3yiFfGf4q1JraIiQY7/fKIm9twI2Y8HhNawHHJGB/TgW84aVobwySPOJB7huUei2dby7WsZVvZzCMmojDQMY+4GbaaJKzKK0Q6AKAHTZUHwJwlDQ2DPGK5yVnCuZS2+XutKuYRE1E/MQaRNKNHHrHcMYOdtCV3HUEVZ+YRE1EQWIiJiIh0xPQlIiIiHbEQExER6YihD6S5YCdlKY0Rh2NSl9L4sHRMWQmjEIko3FiISXPBBC8I+8tNtvJ3a5J0ezBFU7osphxGIRKRFtg1TSrykbZrHyb6LuwUkpDXc5YcQ61Y9mdVLc1au8U2tNWVIJDchwfz92HumnxtroOIBiTdYhC94g89XPcSc7npSNM2BjFU4WiByh3D333GcvpTpBmDSERqdItBvFlzAHtqRPvGZWN5Xiy+ZxHWWGRjEMUCWVRDLJAx20CPIb2GYF+jjjGIRBQ6HWMQvaXPMgPNNq6spSWdYhAjKeLjuIxBJKJ+0i8GUSwuG1Mf6cBXVWwOa2aAxCAGQ6lbWY1cKzrYZSsDLuaMQSSiMNA3BtHN1Ro+y9awRgZCDKK4GAY6aUs68UopkCGQ4wS7bKa/czAGkYjCJQKFWCUGEXCNIz/Sga84Q0szW60pSCoDVmr1ob20BPX2V4CyFM26SwfarUP+31N3DOJe7WIQ35veiLUhfbkiooFEvxhEAEAccqYl4A5bw9rTKQYRkO8aVmulCs/LxSWKtym9NpAoRDXCMZSO5cEYRCIKAx1jEAGYZyI9pgM1bA1Hhg4xiKHEDgYya9nfa0NtQQd9mxJjEImon5i+RJoJJm5QbT+l256CmYTlL9JQ7VhBxyEyBpGIgsBCTEREpCMucUlERKQjFmIiIiIdsRATERHpiDGIpLnBkO/bn4lgRET9wUJMEaE0U1lJoCtvhet1SrOyA3ktEVF/sBCTivDFIwZ7X28oqUn9eZ34teLXSP8ckiBuZ2I8ItHwo1seMeCbSXynWWkFLtKWtnnEg6UVKRRdaRGWPh8s5hETkRrd8ogRl40nx19DZekp3HTtDGvRTKTXVHO5S01FNo841K7iSFJaRlMupEL+WplHTESh0y+PuPMWemKy8WTOZZTXdLqWw+y5hjpNL2iY0ymP2N+qWXrzt8Sm0nMAmEdMRP2mYx5xM2ylDuQst2JVEVzd1uXNageg/hggecQDdTZySC135hETURjomEfcl8y0p9SGptHZWLU8G/GRuaBhZSDkEQ8G0gxitUxi5hETUbjol0dsTkJiTzM+r+kE0Ima8lO4ETMej8Vpf0XDzVDIIx5omEdMROGibx5xTCwMwp/jxiDGdw8KF53yiOUWyZDLGdZbSNfJPGIiCgP98oibq1E5dhnyigqR495yo6YMvHtJQzrkEQPys5DlntdbSNfJPGIi6ifGIJJmAi20gaxopSScrwv2OhUxj5iIgsBCTEREpCOmLxEREemIhZiIiEhHLMREREQ6YvoSaU6PPOL+5gsP1BXAiGjoYSGmiIhEHrG/4ik+pr/95PKJiYi0wEJMKgZXHrFS8Qzm9ijxvmErxswjJiIVAyiP2L3Qh9YXRDKGTh6xUhEOpJUrty0cxZh5xESkRr88YvNi5Jl7UFN6wFV8zYuxank2HOVCPjFpY2jnEUuLZiCtW/GCHnLXyzxiItKSbnnE8WNjcKf5i74WcHMbbuQkwQCwEGtliOcRB9vaFcgVbqWC7oN5xETUTxG8fcmdR3zJtZj0ze4ejBqf7Ik9dK1LHYOHmL6kDYVwhq7dFtSu2w8HnGjfbUHtOgtqvdaZjoUxrRON6yyo3X0SmF2AceLjqoZJ+Apn4ZUKpQj3i5/AC08ecZE0j9iCxjNOwL7f/X5bvNeZNs3DyBOu5y/ZJ8GYP0N0zCoUZaXgfbyCtroShKmhTUQ6itBkLSGP2AabEOrQXI0aUyHyilxpEHeam3EDsfieoQ9ht8nWipWT/+I3nEGeNI84w5VHLB5L9gQftKJt9gcDoqWm1LJVIvcFQfqc+DiBvKeuPOKPsTjwy3aRzSP2DoTYak1Bc+lpvGc/jdxwDDMQkW4iUIgV8ogBNFWV9XVNx2Vj+XgnHNpf0LCz1ZqCrcX+u5BDJuqeTdKxBiu1tpXGfdUe+yvg/t9Tdx7xNu3yiFfGf4q1JgZLEA12+uYRi/fLM6OnkRO1NDMM8oiTTCle/4mPL7dNKphCDoB5xEQUFvrlEbtnUScCAHrQVMksYs0NkzxiufMFci65mdV+u7aZR0xE/cQYRNKMXnnEgczSDsf5FDGPmIiCwEJMRESkI6YvERER6YiFmIiISEcsxERERDpiIaaICHZFLfH+wu1Ocv+F85xy5yUi0hpjEElTcoVNLlxBLfUo2Pt++3ONzB8mokhjISYV/Y9H9HffLqBcUPtTFIVjBrOqVrDLXAaMecREpELbQhyXjeV5ZowSHvc0o1Icc+i1vQdNlQe4qIcutMsjDnqBjCD3C/a1gbai5Y4RagucecREpEbbMeLOUygvLcOe0jLsKbWhCWZkeVbYMsOaNx7XKt3bK69hfN5ipGt6QeTKzj2N0qVhONTSEtTbbdiksou4G1qpuGmRR6zUulXKIxZfo3g/tWvvo/KeuvOIT4dpyelNtlbUl1rCczAiGhAi2DVtQGxMD5zuVIf4nAwkXj/vSWOKTx2PUYjBo2agqVn5KNQPEc4jlhsf1noClHRZy0CWtwwkqYl5xESkFc0LcXzOMuSZYwAAd0QxiIbRMbhz21WV0y2FyMEp1FzPxtSxcQDYPx12xTa0FT6Mo+u9C0bXbgu6VLumY2FMO4/Gda/hrmkDMtcUYFxFQ1+R3mZF0qUS1O9sRXWqd/BDoEtNapYXjOBjEMXF22+XusJ7KtrBlUdskuYR71DvmjbNw8jDFtSedH1RMubPQJenSFehKKsKm2ytaKszchlNoiFA80J8s+YA9tQAQhzi8hxxEpPBE5G4p6YT6ZZsrS9nWNIzjziQyVLhJj1nMNeg1K0tLc7MIyaicIngfcSdqGnswKjRBgCA43YPRpmzEdtY5i7McXhoNNDTzdZwuG21piCpDFgZrrFhqaUlqLe/ApSlyHaX+osfDBfp+K40+lDpGqSt3UCu0/976s4j3qtdHvF70xux1sQiTDTYRbAQxyFnWoKnO/rmpWu4gw58I4wHm2ciPUb0mMJLpzxiNdLC2V+hFvuQJ5Axj5iIwkDjPOK+8WEAuFFThnKh0HaeQnnNYqwqKkQOgL6cYtKMznnEUpHuog5UUBO2mEdMRP3EGETSlNKkJ3+tzkDvBVbbJ9htSrnIQX9hYB4xEQWBhZiIiEhHDH0gIiLSEQsxERGRjliIiYiIdMRCTJrzly0cyGuZDUxEQxVjECni5GYmExENV2wRk4p8pO3ah4km/3sGI5jWsLRoB9OaVlRsQ1tdCVTu8vV4MH8f5q7JD+08REQB0DePGGZYi7KRCNdiHzauqqUTbfKIpV3Soa58Fei9x4FiPjARDST65RHHZWN5UQacladwQ9OLIG+RyyMWF16hkMpl/yplB4uPExzmAxPR4KFbHrGrSJ8CYA6oi5DCIMJ5xHKk6UZyaUfSHGHpNvFrA/k7ijEfmIgGGt3yiCnCdMgjFlOa/RxsTKJq65j5wEQ0COmcR0yRoFcesVrrNZypSwDzgYlo8NItj5giR688YunkrGDGiJUozZpmPjARDVYRHCN25xFfOxu5U1If1S5kUR5xsLOm/XYH9xGKcn8mYqnur/Z3dOcDJ6nlA6e58oHvBnVFFpTWvYvcmx8gKYtjxEQUPP3yiEW3LgEAcgqxKqcHTZUHwJ5rjeiURywmvRUp3F3UzAcmosGGMYikKXGmr7joKv1Z+lq5LOOgMR+YiAYwFmIiIiIdcYlLIiIiHbEQExER6YiFmIiISEcsxERERDpiISYiItIRC/GQZEFpXSuqi/W+DiIi8kffPGLzYqzKSXA/6EBNaTV4o1IYLM1FJj7FW+KFnuZtx9z5nWjcsiPIlaOIiEhL+uURwwxrDlDj3l5zPQE5FrPa0UjEWnoabTb5Ju+ml58GvjwalsUr1M5DRET9p18eMZphK/Wsd4kmewdypo1BPNDXYiZZm2ytWBn/KdbKrm1cjDmT/4LDVmHJxXyk7VoBV9TGJM8SjrDvd0f+zcDEzb8ETpzH2CXuXN5bJz0tZ1vRHJgZ8UdEpJkBk0ecbnIFQrAIq/EfMGAtfQ7jxMH3qMDFdRV+uqZjYZwPNK6z4C5mYOLmzTDO2+GJ/uuL+LPBbLKGEKVIRERKNJ+sdbPmgKdr+tp4K5bnxPnsE5+zDDmjm/E50x6ULS1Bvd0dMGBVSvkpxspFwLlPgw8gcJwQCnQDrmyxeIqwwFY0xx0zyElgREThpHsecXzOMuSNv+Y9iYt8HVqNWaZXcW76u8pjtsWzYb7wsSZ5uNbS02grBN43SSMUiYioPyJYiN15xLc9g8RItxSyCAelCkVZKXgfr6CtrgTeoX4WfuTdEgAABypJREFUlC59WDn4vr0TvWPiXGPAQeoLvWe3NBFRuOmXRxyXjamPAIAZeUVmr31szSAVnjFbWzFsQjd18S+Qi0asVWoN23eg3V6F1F1VSAVEk7XUWUtPYyUYek9EpBXGIA4JrklcxkPsNiYiGmwiePsSaacKRVnBT9AiIiL9cYlLIiIiHbEQExER6YiFmIiISEcsxERERDpiIR7Iim0y9wvLG7emCpn5MzS+oHyk7dqHiSaNT0NENIzoGIMYh5zlVqR7bjPuQVPlAXCVyz6bZv8jmg9ZRUELrnWgR57wXYKSiIgGJ20LcecplJeecj9wFd4s8yn3gh2dqCkvQ417a3zOMuTNMqOmajit5lGMavtzaF8/x3dZyqUlWDL5LzgcSHNYL0tLUL/zERzmiltERCHTMQZRsnV0jNfyl0Pe0hLU73waXWUpsmtDW5+eBohSlB7M34dps2NdD5ZUYe4SAHCiffeLuGIXXjUfabs2uyIPRVGGPq9HCy6tew1d7kfj1lQhVdTd7DgsbnGLYxTd5xT+eGg1ZqXa0GY/DaPclwkiIvJL3xhEcdd1TzMqq4ZJv3SxDW2FD+Poevki7EpR+g6HTX2LdNyteBG1Fepd09GzM9C924JauyTKcN52TIurRu0695KW87Zj7pp8dLmXuOzabfEUZZg2IHPFBjx4cgfuuoswDltQexJwFeXF3ifdZkXSpRLU72xFdSpX9iIiCpbmhfhmzQHsqQGErunlOTaUCwPBoq7r+JxlyFuOIR8AscnWipWT/4L3TXMUu3Otpc/BfOFjLFbYrqT3zO/dreMG9H4PjI2bAaAB4zImAaZJmLtrRd/OtzrxIIC7kLaWAaAF0QDuzpsJw62TaPQ3Hn1oNWYdKka1vRVtsz9QiWkkIiKpCHZNu2IQV5kMAHxbvjdrzuNGURIMwJAuxFutKdharNada0HudODotvAWM+/uZhHTBqTOBtp3W1xF3LQBmWt8M6NVibrZk1iDiYiComsMolh8TgYSe5wYFqPE26xIWt+IzJ2tqJZGCxf/Ark3lTKFXS3d6LjgblPq7XTCsGQ7xsltNMYhGp3odY8zj3t2Xl9UYnsnesdkwGACXDO2xWPFwvXa0LZzGs6tZ7c0EVEodI1B9Lq16fop7CkfRjOmPd25p1F6SWgZW1C61HXLkpKuT07CuGYz5s4GfCdrybtb8SIuxYkiEAH0ntmCcxUNwMmDaJ+/2bOt98xJOEzuFrF9By6d2Ydpa6pgBOA4vAXt83/Zd+ClJagvhGo3OxERqWMM4kBSbEPb0utYm7VadO8wERENZYxBHEi2WTnGSkQ0zHCJSyIiIh2xEBMREemIhZiIiEhHLMREREQ6YiEmIiLSEQvxoBG+LOAH8/dh7pr8/h+IiIj6Tcc84j7plkLkPMI8YhdXsMK9ABbqICKiwU/bFnHnKZSXlmFPaRn2lNrQBDOyzN67xOcsQw46cEPTCxmo3CtrLdX7OpRZS0+jzSZdh5OIiMJF3zziuGw8ae5BTWkbHi3KiNylDAQyecReucDuZSW9s4M70WvcjrlrJrn2se9HrTvK0LUW9GYYx7gfquYRAxDWll5ThVSIj9MXfXjxJGArmgOzrRVtdUau+EVEpAEd84jjkPOUGT01ZWiCGY9qfSEDiUIesSsXWK1rehJS559E47rX3FnBizHRVIEr7vzhsRe3oLaiAYCrwE5bcw21uytcRTjtPBrX7eiLPXQvJ+1au3omxqHCVexlog+3WlPQXHoa79ltMJusXFeaiCiMNJ+sdbPmgKdr+tp4K5bnuCpAfM5CjL9mg20Y5TwArjziNndQgnzCkhon2vcLrdwKdNtjMdIIACaMHNOCdncRBoCu8y3AQ+PxIGbAkBYLx4m+1rEX+w602ydh7DzXw3EZk2T3tRXNQVIZsNIukxhFREQhi+CsaVce8ajRBgBmZJljMMpsxaqiQqwqykYiYpCeV4hVFrPfIw1mW60p7oI2cMaGu863wDB/Ax5EPsaaWtAtk1tsLT3t/gLBuEMionCK4BixO4/42lkAnbCVipvCZliLMuAcLrOmt1mRdKkE9TtbUZ0qLWx23LvlbumqzZo2bYDR1IL23cJrVsCYPwNdFQ0AZmDi/EnovXgQd9GA6O8BY0Y+cLICmLfdNVYsPvbJg2if/0sY12Qg+szvcVFyqk22VqyM/xRrTRwjJiIKN/3yiIc72TxiAGjAlRMtmLukCnOXAN6TtWJh9EzicmURdwmv2bIfI3cJOcVwTeRyd1V37d6PsbtWYO6uFa5JXIeBaV5z4xrguAhMmw20f9Ig3gBr6WmsxAdIymIzmIhIC8wjJgDom9C1RWEsmYiINMGVtQhAPoyzVSZ0ERGRZiI4RkwDT9+9x71ntuCczCQtIiLSFgvxsNaAK1ssuKL3ZRARDWPsmiYiItIRCzEREZGOWIiJiIh09P8DTdFlVChHPJIAAAAASUVORK5CYII=;" vertex="1" parent="1">
                    <mxGeometry x="391.59" y="260" width="293.53" height="190" as="geometry"/>
                </mxCell>
            </root>
        </mxGraphModel>
    </diagram>
</mxfile>